<?xml version="1.0" encoding="UTF-8"?>
<!-- Generator: visioncortex VTracer 0.6.3 -->
<svg version="1.1" xmlns="http://www.w3.org/2000/svg" width="1280" height="1280">
<path d="M0 0 C1.05 -0.03 2.1 -0.06 3.18 -0.09 C12.54 -0.16 20.89 1.88 28.62 7.38 C29.33 7.86 30.03 8.35 30.75 8.85 C32.54 10.24 34.14 11.6 35.62 13.31 C35.62 13.97 35.62 14.63 35.62 15.31 C36.28 15.31 36.95 15.31 37.62 15.31 C43 24.55 46.5 32.36 43.95 43.18 C43.23 45.58 42.47 47.95 41.62 50.31 C40.97 50.31 40.3 50.31 39.62 50.31 C39.48 50.93 39.34 51.55 39.19 52.19 C38.62 54.31 38.62 54.31 37.62 56.31 C36.97 56.31 36.3 56.31 35.62 56.31 C35.28 57.19 35.28 57.19 34.93 58.09 C33.29 60.88 31.48 62.12 28.81 63.94 C27.53 64.82 27.53 64.82 26.23 65.73 C22.14 68.22 19.46 69.31 14.62 69.31 C16.48 77.43 16.48 77.43 19.12 85.31 C20.78 89.47 21.77 93.74 22.78 98.09 C23.44 100.61 24.18 102.99 25.03 105.45 C26.9 110.96 28.26 116.59 29.62 122.25 C31.25 128.95 32.94 135.58 35.01 142.15 C35.87 145.18 36.23 148.19 36.62 151.31 C36.96 151.64 37.28 151.97 37.62 152.31 C37.75 153.3 37.87 154.29 38 155.31 C38.37 158.11 38.99 160.59 39.94 163.25 C41.36 167.31 42.42 171.39 43.44 175.56 C45.06 182.2 46.83 188.8 48.69 195.38 C49.06 196.7 49.06 196.7 49.43 198.04 C50.84 202.99 52.56 207.59 54.62 212.31 C55.6 215.04 56.49 217.8 57.38 220.56 C60.3 229.48 63.49 238.27 66.78 247.06 C67.58 249.18 68.37 251.31 69.16 253.43 C73.57 265.29 78.07 277.11 82.88 288.81 C84.12 291.9 85.15 294.98 86.06 298.19 C87.46 303.04 89.38 307.58 91.36 312.22 C93.03 316.3 94.37 320.45 95.72 324.64 C96.65 327.5 96.65 327.5 98.19 330.94 C99.69 334.47 100.76 337.99 101.78 341.69 C102.62 344.44 102.62 344.44 104.02 347.48 C106.04 352.08 107.36 356.87 108.75 361.69 C109.27 363.49 109.79 365.29 110.32 367.09 C110.66 368.27 110.66 368.27 111.01 369.47 C111.47 371.31 111.47 371.31 112.62 372.31 C112.97 371.45 113.31 370.59 113.66 369.7 C125.22 340.58 125.22 340.58 132.08 327.49 C133.24 325.12 134.19 322.87 135.09 320.4 C136.58 316.29 138.44 312.45 140.44 308.56 C140.96 307.53 140.96 307.53 141.49 306.47 C143.11 303.27 144.74 300.08 146.38 296.89 C149.48 290.82 149.48 290.82 152 284.5 C153.68 279.67 156.27 275.29 158.71 270.82 C161.1 266.41 162.96 262.05 164.62 257.31 C165.34 256.14 165.34 256.14 166.06 254.94 C167.51 252.51 168.48 250.25 169.5 247.62 C170.85 244.15 172.33 240.86 174.06 237.56 C176.67 232.47 178.51 227.2 180.38 221.8 C181.49 218.69 182.7 215.66 184 212.62 C188.64 201.67 193.16 190.42 195.92 178.83 C196.71 176 197.77 173.3 198.82 170.56 C200.28 166.48 201.4 162.3 202.56 158.12 C203.09 156.26 203.61 154.4 204.14 152.54 C204.52 151.2 204.52 151.2 204.91 149.83 C208.67 136.62 208.67 136.62 211.19 130.25 C212.82 126.08 213.79 121.79 214.78 117.44 C215.62 114.34 216.68 111.43 217.83 108.43 C218.9 105.57 219.83 102.67 220.77 99.77 C223.02 92.79 225.48 86.14 228.66 79.53 C229.84 76.83 230.39 74.24 230.62 71.31 C229.94 71.21 229.26 71.11 228.56 71 C225 70.17 221.96 68.82 218.62 67.31 C218.62 66.65 218.62 65.99 218.62 65.31 C217.73 64.91 217.73 64.91 216.81 64.5 C214.63 63.31 213.21 62.22 211.62 60.31 C211.62 59.65 211.62 58.99 211.62 58.31 C210.97 58.31 210.3 58.31 209.62 58.31 C205.24 50.92 204.61 43.79 205.62 35.31 C206.97 31.18 209.22 27.92 211.62 24.31 C212.28 24.31 212.95 24.31 213.62 24.31 C213.62 23.65 213.62 22.99 213.62 22.31 C222.25 15.34 229.99 12.64 241.06 12.81 C242.04 12.8 243.01 12.78 244.01 12.77 C255.05 12.82 263.64 16.77 271.62 24.31 C273.56 26.57 275.04 28.77 276.62 31.31 C276.99 31.87 277.35 32.43 277.73 33 C279.07 36.46 279.01 39.9 279 43.56 C279 44.32 279 45.08 279 45.86 C278.9 51.62 277.91 55.49 274.62 60.31 C273.97 60.31 273.3 60.31 272.62 60.31 C272.44 60.87 272.25 61.43 272.06 62 C268.42 67.86 261.94 70.28 255.62 72.31 C254.97 72.31 254.3 72.31 253.62 72.31 C253.88 73.08 254.13 73.84 254.39 74.63 C256.82 82.18 258.59 89.6 260.01 97.39 C260.32 100.19 260.32 100.19 261.62 101.31 C262.26 104.59 262.81 107.88 263.34 111.18 C264.09 115.63 265 120.02 266.04 124.42 C267.94 132.5 269.46 140.65 271 148.8 C272.5 156.75 274.11 164.64 276.01 172.5 C276.87 176.42 277.23 180.32 277.62 184.31 C277.96 184.64 278.28 184.97 278.62 185.31 C279.1 187.85 279.53 190.39 279.94 192.94 C281.91 204.62 285.13 215.82 288.69 227.12 C289.97 231.48 290.93 235.9 291.91 240.33 C292.69 243.61 293.7 246.72 294.82 249.89 C295.82 252.88 296.65 255.9 297.5 258.94 C298.89 263.87 300.41 268.72 302.06 273.56 C304.24 279.97 306.11 286.43 307.84 292.97 C308.97 297.2 310.32 301.26 311.9 305.35 C313.09 308.56 314 311.84 314.94 315.12 C316.47 320.43 318.06 325.71 319.76 330.97 C323.54 342.66 326.71 354.49 329.85 366.37 C330.54 368.97 331.24 371.57 331.96 374.16 C332.15 374.86 332.34 375.55 332.53 376.27 C333.02 378.03 333.51 379.79 334 381.55 C334.62 384.31 334.62 384.31 334.62 388.31 C335.62 388.31 336.61 388.31 337.62 388.31 C337.91 387.55 338.2 386.79 338.5 386 C339.62 383.31 339.62 383.31 341.62 380.31 C342.28 380.31 342.95 380.31 343.62 380.31 C343.88 379.57 344.14 378.83 344.4 378.07 C345.69 375.17 347.07 373.47 349.25 371.19 C352.98 367.12 356.2 362.86 359.4 358.37 C362.49 354.12 365.76 350.01 369.03 345.91 C371.57 342.77 371.57 342.77 373.62 339.31 C374.28 339.31 374.95 339.31 375.62 339.31 C375.83 338.63 376.04 337.95 376.25 337.25 C377.78 333.99 379.65 331.82 382.04 329.16 C383.63 327.31 385 325.39 386.38 323.38 C387.12 322.36 387.86 321.35 388.62 320.31 C389.28 320.31 389.95 320.31 390.62 320.31 C391 319.21 391 319.21 391.39 318.09 C392.72 315.11 394.21 313.3 396.44 310.94 C399.01 308.15 401.37 305.39 403.5 302.25 C404.2 301.28 404.9 300.31 405.62 299.31 C406.29 299.31 406.94 299.31 407.62 299.31 C408.29 297.66 408.94 296.01 409.62 294.31 C410.29 294.31 410.94 294.31 411.62 294.31 C411.93 293.69 412.24 293.07 412.56 292.44 C413.25 291.06 413.94 289.69 414.62 288.31 C415.29 288.31 415.94 288.31 416.62 288.31 C417.29 286.66 417.94 285.01 418.62 283.31 C419.29 283.31 419.94 283.31 420.62 283.31 C421.29 281.66 421.94 280.01 422.62 278.31 C423.29 278.31 423.94 278.31 424.62 278.31 C424.85 277.8 425.08 277.28 425.31 276.75 C427.11 273.42 429.12 270.17 431.62 267.31 C432.29 267.31 432.94 267.31 433.62 267.31 C433.87 266.76 434.11 266.21 434.36 265.64 C435.9 262.8 437.8 260.53 439.88 258.06 C443.23 254.04 446.42 249.96 449.43 245.68 C449.83 245.23 450.22 244.78 450.62 244.31 C451.29 244.31 451.94 244.31 452.62 244.31 C452.91 243.71 453.2 243.12 453.5 242.5 C454.63 240.31 454.63 240.31 456.62 237.31 C457.29 237.31 457.94 237.31 458.62 237.31 C458.88 236.75 459.14 236.19 459.41 235.61 C460.77 233.05 462.35 230.86 464.12 228.56 C465.04 227.36 465.04 227.36 465.97 226.14 C466.52 225.54 467.06 224.93 467.62 224.31 C468.29 224.31 468.94 224.31 469.62 224.31 C469.62 223.65 469.62 222.99 469.62 222.31 C470.29 222.31 470.94 222.31 471.62 222.31 C471.81 221.65 472 220.99 472.19 220.31 C474.23 216.04 477.2 212.57 480.62 209.31 C481.29 209.31 481.94 209.31 482.62 209.31 C482.88 208.75 483.14 208.19 483.41 207.61 C484.77 205.05 486.35 202.86 488.12 200.56 C489.04 199.36 489.04 199.36 489.97 198.14 C490.52 197.54 491.06 196.93 491.62 196.31 C492.29 196.31 492.94 196.31 493.62 196.31 C493.91 195.71 494.2 195.12 494.5 194.5 C495.62 192.31 495.62 192.31 497.62 189.31 C498.29 189.31 498.94 189.31 499.62 189.31 C499.87 188.75 500.12 188.18 500.37 187.6 C501.84 184.92 503.6 182.98 505.69 180.75 C509.01 177.13 512.18 173.45 515.25 169.62 C518.4 165.72 521.67 162.1 525.31 158.65 C526.75 157.33 526.75 157.33 527.62 155.31 C528.29 155.31 528.94 155.31 529.62 155.31 C529.9 154.72 530.17 154.12 530.45 153.51 C531.59 151.37 532.75 149.9 534.41 148.15 C534.94 147.58 535.47 147.02 536.02 146.44 C536.57 145.86 537.12 145.28 537.69 144.69 C541.59 140.82 541.59 140.82 544.62 136.31 C545.29 136.31 545.94 136.31 546.62 136.31 C546.62 135.65 546.62 134.99 546.62 134.31 C547.29 134.31 547.94 134.31 548.62 134.31 C548.86 133.76 549.1 133.2 549.34 132.63 C550.93 129.77 552.9 127.64 555.12 125.25 C557.53 122.65 559.66 120.26 561.62 117.31 C562.29 117.31 562.94 117.31 563.62 117.31 C563.62 116.65 563.62 115.99 563.62 115.31 C564.29 115.31 564.94 115.31 565.62 115.31 C563.94 112.22 562.1 109.72 559.69 107.19 C555.29 102.1 552.64 96.23 552.62 89.44 C553.49 82.98 555.87 77.84 560.62 73.31 C562.11 72.82 562.11 72.82 563.62 72.31 C563.62 71.65 563.62 70.99 563.62 70.31 C572.92 64.5 582.1 62.81 592.9 64.96 C602.09 67.46 610.51 71.98 615.62 80.31 C619.14 87.19 620.32 92.84 618.65 100.45 C615.78 108.46 609.98 113.76 602.41 117.37 C598.97 118.53 595.86 118.74 592.25 118.94 C590.35 119.05 590.35 119.05 588.41 119.16 C584.81 119.31 581.23 119.34 577.62 119.31 C575.48 124.94 573.5 130.59 571.62 136.31 C570.19 140.69 568.74 145.05 567.08 149.35 C565.54 153.41 564.41 157.55 563.31 161.75 C561.71 167.72 559.9 173.52 557.75 179.31 C553.93 189.7 551.29 200.41 548.48 211.1 C547.19 215.96 545.82 220.79 544.44 225.62 C544.07 226.92 544.07 226.92 543.69 228.24 C542.34 232.93 540.92 237.6 539.44 242.25 C537.64 247.96 536.4 253.74 535.24 259.61 C534.62 262.31 534.62 262.31 533.62 263.31 C533.15 265.69 532.72 268.05 532.31 270.44 C530.86 278.53 528.81 286.39 526.62 294.31 C524.23 303.23 522.22 312.13 520.7 321.24 C520.02 325.29 519.19 329.22 518.12 333.19 C516.61 338.97 515.71 344.79 514.82 350.7 C513.91 356.68 512.84 362.62 511.69 368.56 C510.2 376.22 508.78 383.88 507.44 391.56 C507.27 392.5 507.1 393.44 506.93 394.41 C506.05 399.46 505.39 404.4 505.17 409.53 C504.62 411.31 504.62 411.31 502.92 412.6 C500.05 413.49 498.2 413.24 495.24 412.74 C494.17 412.57 493.1 412.39 491.99 412.22 C490.84 412.02 489.69 411.83 488.5 411.62 C477.61 409.88 466.73 408.44 455.77 407.26 C454.74 407.15 453.71 407.04 452.66 406.93 C451.75 406.83 450.85 406.74 449.92 406.64 C447.62 406.31 447.62 406.31 444.62 405.31 C442.32 405.11 440 404.95 437.69 404.81 C433.84 404.59 430.35 404.24 426.62 403.31 C424.29 403.11 421.96 402.95 419.62 402.81 C413.04 402.42 413.04 402.42 410.8 401.83 C408.04 401.17 405.33 400.95 402.5 400.7 C400.63 400.53 400.63 400.53 398.72 400.36 C398.06 400.3 397.39 400.24 396.7 400.18 C383.72 399.04 370.76 397.71 357.81 396.25 C356.27 396.08 354.72 395.9 353.18 395.73 C347.95 395.14 342.72 394.55 337.49 393.96 C328.16 392.9 318.87 392.05 309.49 391.65 C306.68 391.53 303.97 391.38 301.21 390.82 C297.23 390.04 293.23 389.98 289.19 389.81 C280.38 389.44 280.38 389.44 276.78 388.81 C270.68 387.85 264.47 387.91 258.3 387.71 C257.26 387.67 256.22 387.63 255.15 387.59 C254.21 387.56 253.27 387.53 252.3 387.5 C249.62 387.31 249.62 387.31 247.13 386.81 C244.37 386.26 241.76 386.12 238.95 386.03 C237.87 385.99 236.8 385.96 235.69 385.92 C234.02 385.87 234.02 385.87 232.31 385.81 C226.1 385.62 219.98 385.42 213.82 384.55 C208.51 383.98 203.15 383.96 197.81 383.81 C195.39 383.74 192.97 383.67 190.54 383.59 C189.48 383.56 188.41 383.53 187.32 383.5 C184.32 383.35 181.36 383.11 178.37 382.83 C172.83 382.31 167.3 382.02 161.73 381.81 C160.7 381.77 159.68 381.73 158.62 381.69 C156.44 381.6 154.27 381.52 152.09 381.44 C148.91 381.32 145.74 381.19 142.56 381.06 C108.72 379.73 74.86 379.07 41 378.69 C40.04 378.68 39.09 378.67 38.1 378.65 C-0.82 378.2 -39.7 378.47 -78.62 379.24 C-82.04 379.31 -85.46 379.37 -88.88 379.43 C-109.87 379.81 -130.84 380.51 -151.81 381.31 C-152.92 381.35 -154.02 381.4 -155.16 381.44 C-158.32 381.56 -161.47 381.69 -164.62 381.81 C-165.55 381.85 -166.47 381.88 -167.42 381.92 C-172.92 382.15 -178.38 382.57 -183.86 383.09 C-187.08 383.37 -190.28 383.51 -193.51 383.59 C-194.75 383.63 -195.99 383.67 -197.26 383.71 C-199.81 383.78 -202.35 383.85 -204.9 383.92 C-212.23 384.1 -212.23 384.1 -219.51 384.81 C-225.88 385.64 -232.29 385.71 -238.71 385.92 C-244.56 386.11 -244.56 386.11 -250.36 386.81 C-256.4 387.82 -262.59 387.72 -268.7 387.92 C-269.74 387.96 -270.78 387.99 -271.85 388.03 C-272.79 388.06 -273.73 388.09 -274.7 388.12 C-277.34 388.31 -279.79 388.78 -282.38 389.31 C-283.86 389.44 -285.35 389.53 -286.84 389.59 C-287.66 389.63 -288.48 389.67 -289.32 389.71 C-291.88 389.81 -291.88 389.81 -294.43 389.92 C-298.53 390.11 -302.35 390.49 -306.38 391.31 C-308.16 391.41 -309.95 391.49 -311.74 391.55 C-322.85 391.92 -333.85 393.18 -344.88 394.45 C-357.7 395.93 -370.53 397.22 -383.39 398.36 C-384.63 398.47 -385.87 398.58 -387.15 398.7 C-388.24 398.79 -389.32 398.89 -390.44 398.99 C-393.14 399.29 -395.72 399.77 -398.38 400.31 C-401.98 400.61 -405.58 400.82 -409.2 401.03 C-412.4 401.19 -412.4 401.19 -415.38 402.31 C-418.56 402.57 -421.74 402.75 -424.93 402.92 C-427.96 403.09 -430.48 403.35 -433.38 404.31 C-436.96 404.62 -440.54 404.82 -444.12 405.03 C-447.38 405.19 -447.38 405.19 -450.38 406.31 C-452.28 406.57 -454.2 406.8 -456.12 407 C-457.84 407.18 -457.84 407.18 -459.6 407.37 C-460.81 407.49 -462.01 407.62 -463.25 407.75 C-471.39 408.6 -479.47 409.57 -487.54 410.93 C-488.48 411.06 -489.41 411.18 -490.38 411.31 C-491.26 411.43 -492.15 411.56 -493.06 411.68 C-495.38 411.31 -495.38 411.31 -497.11 409.14 C-498.34 406.39 -499.08 403.98 -499.66 401.02 C-499.96 399.5 -499.96 399.5 -500.26 397.95 C-500.47 396.87 -500.67 395.8 -500.88 394.69 C-501.09 393.58 -501.3 392.48 -501.52 391.34 C-503.01 383.58 -504.33 375.8 -505.47 367.98 C-506 364.02 -506 364.02 -507.38 360.31 C-507.68 357.98 -507.88 355.65 -508.09 353.31 C-508.17 351.32 -508.17 351.32 -509.38 350.31 C-509.85 347.61 -510.28 344.9 -510.69 342.19 C-512.03 333.69 -514.06 325.6 -516.38 317.31 C-517.08 314.65 -517.76 311.98 -518.44 309.31 C-518.6 308.65 -518.77 307.99 -518.94 307.31 C-520.09 302.69 -521.04 298.05 -521.94 293.38 C-522.85 288.67 -523.95 284.27 -525.57 279.76 C-526.61 276.61 -527.35 273.41 -528.12 270.19 C-530.05 262.21 -532.44 254.39 -534.87 246.56 C-536.67 240.71 -538.35 234.88 -539.67 228.91 C-540.43 226.11 -541.43 223.45 -542.47 220.75 C-544.4 215.54 -546.12 210.26 -547.88 205 C-548.27 203.84 -548.66 202.68 -549.06 201.49 C-550.84 196.15 -552.54 190.83 -553.97 185.39 C-555.09 181.16 -556.6 177.32 -558.38 173.31 C-559.7 169.69 -560.94 166.03 -562.19 162.38 C-566.57 149.66 -571.12 137.05 -576.39 124.67 C-577.13 122.91 -577.77 121.12 -578.38 119.31 C-579.59 119.32 -580.81 119.34 -582.07 119.35 C-583.69 119.36 -585.31 119.37 -586.94 119.38 C-588.14 119.39 -588.14 119.39 -589.36 119.4 C-595.82 119.43 -602 119.41 -607.81 116.25 C-608.83 115.71 -608.83 115.71 -609.87 115.15 C-610.62 114.74 -610.62 114.74 -611.38 114.31 C-611.38 113.65 -611.38 112.99 -611.38 112.31 C-611.97 112.04 -612.57 111.78 -613.19 111.5 C-618.51 108.61 -620.56 103.89 -622.38 98.31 C-623.61 91.28 -621.33 85.63 -618.38 79.31 C-617.72 79.31 -617.05 79.31 -616.38 79.31 C-616.14 78.73 -615.9 78.14 -615.65 77.54 C-614.12 74.87 -612.45 73.53 -610 71.69 C-609.23 71.1 -608.46 70.51 -607.66 69.9 C-599.75 64.41 -590.8 63.37 -581.38 64.31 C-572.54 66.3 -564.02 70.88 -558.88 78.56 C-556.05 84.32 -555.93 90.87 -557.06 97.06 C-558.55 100.75 -560.32 103.91 -562.38 107.31 C-563.05 108.64 -563.72 109.97 -564.38 111.31 C-563.87 111.87 -563.36 112.42 -562.84 112.99 C-562.19 113.72 -561.54 114.44 -560.88 115.19 C-560.23 115.91 -559.58 116.63 -558.91 117.37 C-557.38 119.31 -557.38 119.31 -557.38 121.31 C-556.72 121.31 -556.06 121.31 -555.38 121.31 C-551.38 125.78 -551.38 125.78 -551.38 128.31 C-550.72 128.31 -550.06 128.31 -549.38 128.31 C-549.38 128.97 -549.38 129.63 -549.38 130.31 C-548.72 130.31 -548.06 130.31 -547.38 130.31 C-545.86 132.01 -544.41 133.77 -543 135.56 C-540.78 138.37 -538.64 141.05 -536.09 143.55 C-534.38 145.31 -534.38 145.31 -534.38 147.31 C-533.72 147.31 -533.06 147.31 -532.38 147.31 C-530.93 148.75 -530.93 148.75 -529.25 150.75 C-525.88 154.73 -522.4 158.59 -518.88 162.43 C-517.38 164.31 -517.38 164.31 -517.38 166.31 C-516.72 166.31 -516.06 166.31 -515.38 166.31 C-513.86 168.01 -512.41 169.77 -511 171.56 C-508.78 174.37 -506.64 177.05 -504.09 179.55 C-502.38 181.31 -502.38 181.31 -502.38 183.31 C-501.72 183.31 -501.06 183.31 -500.38 183.31 C-498.77 185.05 -497.24 186.85 -495.75 188.69 C-494.93 189.69 -494.12 190.68 -493.27 191.71 C-491.38 194.31 -491.38 194.31 -491.38 196.31 C-490.72 196.31 -490.06 196.31 -489.38 196.31 C-487.81 198.01 -486.32 199.77 -484.88 201.56 C-484.08 202.54 -483.29 203.51 -482.47 204.52 C-480.79 206.76 -479.49 208.76 -478.38 211.31 C-477.72 211.31 -477.06 211.31 -476.38 211.31 C-472.38 215.78 -472.38 215.78 -472.38 218.31 C-471.72 218.31 -471.06 218.31 -470.38 218.31 C-467.38 221.77 -467.38 221.77 -467.38 224.31 C-466.72 224.31 -466.06 224.31 -465.38 224.31 C-461.38 228.78 -461.38 228.78 -461.38 231.31 C-460.72 231.31 -460.06 231.31 -459.38 231.31 C-457.82 233.04 -457.82 233.04 -455.94 235.5 C-452.07 240.48 -448.03 245.28 -443.88 250.02 C-440.38 254.09 -440.38 254.09 -440.38 256.31 C-439.72 256.31 -439.06 256.31 -438.38 256.31 C-436.65 258.21 -436.65 258.21 -434.75 260.69 C-434.12 261.5 -433.49 262.31 -432.84 263.15 C-431.38 265.31 -431.38 265.31 -431.38 267.31 C-430.72 267.31 -430.06 267.31 -429.38 267.31 C-427.87 268.99 -427.87 268.99 -426.25 271.19 C-425.71 271.91 -425.17 272.63 -424.62 273.37 C-423.38 275.31 -423.38 275.31 -423.38 277.31 C-422.72 277.31 -422.06 277.31 -421.38 277.31 C-419.65 279.21 -419.65 279.21 -417.75 281.69 C-417.12 282.5 -416.49 283.31 -415.84 284.15 C-414.38 286.31 -414.38 286.31 -414.38 288.31 C-413.72 288.31 -413.06 288.31 -412.38 288.31 C-410.5 290.51 -408.74 292.71 -407 295 C-406.03 296.25 -405.07 297.51 -404.1 298.76 C-403.64 299.37 -403.18 299.97 -402.7 300.6 C-401.51 302.14 -400.27 303.64 -399.02 305.14 C-397.38 307.31 -397.38 307.31 -397.38 309.31 C-396.72 309.31 -396.06 309.31 -395.38 309.31 C-393.75 311.08 -393.75 311.08 -391.81 313.56 C-390.76 314.92 -390.76 314.92 -389.68 316.3 C-388.92 317.29 -388.16 318.29 -387.38 319.31 C-386.75 320.11 -386.75 320.11 -386.12 320.93 C-378.38 330.94 -378.38 330.94 -378.38 333.31 C-377.72 333.31 -377.06 333.31 -376.38 333.31 C-374.65 335.36 -373.03 337.41 -371.44 339.56 C-370.99 340.15 -370.55 340.74 -370.1 341.34 C-369.24 342.48 -368.38 343.62 -367.53 344.77 C-366.56 346.07 -365.56 347.34 -364.56 348.61 C-363.38 350.31 -363.38 350.31 -363.38 352.31 C-362.71 352.31 -362.06 352.31 -361.38 352.31 C-360 354.01 -358.7 355.77 -357.44 357.56 C-356.75 358.54 -356.06 359.51 -355.35 360.52 C-354.7 361.44 -354.05 362.36 -353.38 363.31 C-352.8 364.05 -352.22 364.79 -351.62 365.55 C-350.38 367.31 -350.38 367.31 -350.38 369.31 C-349.71 369.31 -349.06 369.31 -348.38 369.31 C-347.71 370.96 -347.06 372.61 -346.38 374.31 C-345.71 374.31 -345.06 374.31 -344.38 374.31 C-342.95 376.03 -341.61 377.81 -340.31 379.62 C-339.6 380.61 -338.89 381.6 -338.15 382.61 C-336.37 385.31 -336.37 385.31 -335.38 388.31 C-334.71 387.98 -334.06 387.65 -333.38 387.31 C-332.6 384.4 -331.94 381.51 -331.31 378.56 C-329.21 369.22 -326.6 360.08 -323.75 350.94 C-323.37 349.7 -322.98 348.46 -322.59 347.18 C-319.54 337.48 -319.54 337.48 -317.74 333.44 C-316.21 329.93 -315.15 326.37 -314.12 322.69 C-312.15 315.8 -310.01 308.98 -307.75 302.19 C-307.46 301.31 -307.17 300.44 -306.87 299.53 C-305.65 295.89 -304.39 292.35 -302.85 288.82 C-301.35 285.25 -300.25 281.71 -299.17 278 C-297.77 273.27 -296.14 268.61 -294.56 263.94 C-288.86 246.9 -283.85 229.96 -280.05 212.39 C-279.31 209 -278.54 205.62 -277.77 202.23 C-277.22 199.82 -276.67 197.41 -276.12 195 C-275.87 193.87 -275.61 192.75 -275.34 191.59 C-273.97 185.48 -273.01 179.53 -272.38 173.31 C-272.05 172.65 -271.71 171.99 -271.38 171.31 C-271.17 169.65 -271.01 167.98 -270.88 166.31 C-270.49 161.53 -270.49 161.53 -269.38 159.31 C-269.17 157.65 -269.01 155.98 -268.88 154.31 C-268.49 149.53 -268.49 149.53 -267.38 147.31 C-266.93 144.46 -266.52 141.61 -266.12 138.75 C-264.36 126.5 -261.92 114.42 -259.38 102.31 C-259.19 101.42 -259 100.52 -258.81 99.59 C-254.66 79.88 -254.66 79.88 -251.38 73.31 C-252.19 73.07 -252.19 73.07 -253.03 72.83 C-264.06 69.42 -272.08 64.63 -278.04 54.48 C-280.71 48.16 -280.57 40.75 -278.32 34.29 C-276.57 30.77 -274.55 27.58 -272.38 24.31 C-271.71 24.31 -271.06 24.31 -270.38 24.31 C-270.38 23.65 -270.38 22.99 -270.38 22.31 C-260.63 14.26 -250.86 12.45 -238.38 12.31 C-237.12 12.29 -237.12 12.29 -235.84 12.27 C-227.59 12.66 -219.44 17.04 -213.44 22.56 C-207.41 29.32 -204.5 36.24 -204.88 45.34 C-205.9 51.42 -209 56.26 -212.38 61.31 C-213.04 61.31 -213.69 61.31 -214.38 61.31 C-214.38 61.97 -214.38 62.63 -214.38 63.31 C-215.04 63.31 -215.69 63.31 -216.38 63.31 C-216.38 63.97 -216.38 64.63 -216.38 65.31 C-218.16 66.32 -219.96 67.32 -221.75 68.31 C-222.75 68.87 -223.75 69.43 -224.77 70 C-227.38 71.31 -227.38 71.31 -229.38 71.31 C-228.44 73.83 -227.5 76.35 -226.56 78.88 C-226.3 79.58 -226.04 80.28 -225.77 81.01 C-224.51 84.38 -223.22 87.71 -221.77 91 C-220.18 94.77 -219.2 98.51 -218.22 102.47 C-217.41 105.2 -216.33 107.7 -215.18 110.3 C-213.57 114.34 -212.52 118.56 -211.38 122.75 C-209.32 130.27 -209.32 130.27 -206.77 137.62 C-205.6 140.73 -204.72 143.65 -204 146.88 C-202.71 152.23 -201.06 157.4 -199.28 162.61 C-197.87 166.75 -196.61 170.91 -195.44 175.12 C-193.87 180.72 -192.14 186.24 -190.31 191.75 C-190.07 192.5 -189.82 193.24 -189.57 194.01 C-188.05 198.55 -186.3 202.92 -184.38 207.31 C-183.57 209.35 -182.78 211.39 -182 213.44 C-181.36 215.11 -181.36 215.11 -180.7 216.82 C-179.81 219.17 -178.93 221.52 -178.05 223.87 C-177.4 225.57 -177.4 225.57 -176.75 227.31 C-176.17 228.86 -176.17 228.86 -175.59 230.44 C-174.47 233.3 -174.47 233.3 -172.91 235.69 C-171.63 237.88 -170.78 239.78 -169.92 242.16 C-168.46 246.22 -166.61 249.98 -164.62 253.81 C-161.85 259.24 -159.27 264.71 -156.88 270.31 C-152.87 279.65 -148.27 288.66 -143.64 297.7 C-143.12 298.73 -142.6 299.76 -142.06 300.81 C-141.61 301.69 -141.16 302.57 -140.7 303.47 C-139.66 305.7 -138.78 307.87 -137.95 310.18 C-136.44 314.28 -134.57 318.12 -132.56 322 C-126.28 334.4 -120.86 346.92 -116.02 359.95 C-115.58 361.12 -115.14 362.29 -114.69 363.5 C-114.09 365.1 -114.09 365.1 -113.49 366.73 C-112.52 369.41 -112.52 369.41 -110.38 371.31 C-107.98 364.23 -105.63 357.13 -103.37 350 C-103.02 348.89 -102.67 347.79 -102.31 346.66 C-101.61 344.46 -100.92 342.26 -100.23 340.06 C-98.52 334.66 -96.66 329.49 -94.38 324.31 C-93.84 322.66 -93.34 320.99 -92.88 319.31 C-91.9 315.8 -90.63 312.54 -89.17 309.2 C-87.79 305.92 -86.66 302.55 -85.5 299.19 C-83.65 293.88 -81.74 288.61 -79.69 283.38 C-78.25 279.7 -76.95 276.05 -75.88 272.25 C-74.84 268.64 -73.55 265.26 -72.06 261.81 C-69.52 255.89 -67.49 249.85 -65.52 243.72 C-64.41 240.28 -63.25 236.92 -61.79 233.61 C-60.53 230.67 -59.64 227.91 -58.88 224.81 C-57.97 221.13 -56.74 217.81 -55.21 214.34 C-53.51 210.2 -52.22 205.9 -50.88 201.62 C-50.41 200.16 -50.41 200.16 -49.94 198.67 C-48.07 192.71 -46.4 186.76 -44.98 180.68 C-44.43 178.55 -43.76 176.6 -42.94 174.56 C-41.23 170.25 -40.22 165.79 -39.14 161.29 C-36.81 151.77 -33.95 142.41 -31.17 133.02 C-28.97 125.55 -26.78 118.09 -25 110.5 C-23.59 104.69 -21.61 99.15 -19.58 93.54 C-17.53 87.87 -15.86 82.16 -14.38 76.31 C-13.72 73.98 -13.05 71.64 -12.38 69.31 C-13.09 69.36 -13.81 69.41 -14.55 69.46 C-22.95 69.01 -29.93 62.3 -35.5 56.56 C-42.47 48.21 -43.26 39.82 -42.6 29.33 C-41.44 19.07 -33.01 12.06 -25.44 5.94 C-21.87 4.04 -18.34 2.97 -14.45 1.93 C-9.5 0.46 -5.56 0.05 0 0 Z M14.62 294.31 C13.64 295.56 12.66 296.81 11.69 298.06 C10.87 299.11 10.87 299.11 10.04 300.17 C8.65 302.27 8.06 303.86 7.62 306.31 C6.97 306.31 6.3 306.31 5.62 306.31 C5.38 306.79 5.14 307.26 4.88 307.75 C2.28 312.62 -0.6 317.24 -3.69 321.81 C-8.48 328.91 -13.13 336.1 -17.75 343.31 C-18.44 344.39 -19.13 345.46 -19.84 346.57 C-23.15 351.75 -26.39 356.93 -29.38 362.31 C-27.58 364.11 -25.13 363.43 -22.73 363.44 C-21.51 363.43 -21.51 363.43 -20.28 363.43 C-19 363.43 -19 363.43 -17.7 363.43 C-14.88 363.43 -12.07 363.42 -9.25 363.41 C-7.3 363.41 -5.35 363.41 -3.4 363.41 C1.74 363.4 6.88 363.39 12.02 363.38 C17.27 363.37 22.51 363.37 27.75 363.36 C38.04 363.35 48.33 363.33 58.62 363.31 C57.11 359.37 55.3 356.04 53 352.5 C52.29 351.4 51.59 350.31 50.86 349.18 C50.11 348.04 49.37 346.89 48.62 345.75 C47.16 343.5 45.71 341.25 44.25 339 C43.28 337.5 43.28 337.5 42.29 335.98 C40.93 333.8 39.72 331.64 38.62 329.31 C37.97 329.31 37.31 329.31 36.62 329.31 C36.47 328.47 36.47 328.47 36.31 327.6 C35.5 324.9 34.28 322.99 32.72 320.65 C32.14 319.78 31.56 318.9 30.96 318 C30.36 317.09 29.75 316.18 29.12 315.25 C27.92 313.45 26.73 311.65 25.53 309.84 C25 309.04 24.47 308.25 23.92 307.43 C22.62 305.31 22.62 305.31 21.62 302.31 C20.97 302.31 20.3 302.31 19.62 302.31 C19.54 301.74 19.46 301.16 19.38 300.56 C18.42 297.7 16.84 296.31 14.62 294.31 Z M227.62 300.31 C226.19 302.29 224.8 304.29 223.44 306.31 C220.3 310.93 217.08 315.44 213.62 319.82 C212.44 321.29 212.44 321.29 212.62 323.31 C211.97 323.31 211.3 323.31 210.62 323.31 C208.99 325.41 207.48 327.49 206 329.69 C205.58 330.29 205.16 330.89 204.73 331.52 C202.39 334.63 202.39 334.63 201.62 338.31 C200.97 338.31 200.3 338.31 199.62 338.31 C198.37 340.01 197.2 341.78 196.06 343.56 C192.39 349.23 188.46 354.58 184.31 359.91 C182.43 362.1 182.43 362.1 182.62 364.31 C181.97 364.31 181.3 364.31 180.62 364.31 C180.62 365.3 180.62 366.29 180.62 367.31 C189.56 369.33 198.39 369.7 207.5 369.88 C209.59 369.92 211.67 369.97 213.76 370.02 C215.63 370.06 217.51 370.1 219.39 370.14 C222.26 370.29 224.82 370.73 227.62 371.31 C229.45 371.44 231.29 371.53 233.12 371.59 C234.15 371.63 235.19 371.67 236.25 371.71 C237.33 371.74 238.4 371.78 239.5 371.81 C245.96 372.02 252.23 372.33 258.62 373.31 C260.44 373.37 262.25 373.4 264.06 373.38 C264.93 373.37 265.79 373.36 266.68 373.35 C267.32 373.34 267.96 373.32 268.62 373.31 C264.21 364.15 259.52 355.27 254.28 346.55 C251.61 342.07 249.15 337.56 246.88 332.88 C244.08 327.15 240.99 321.72 237.62 316.31 C234.42 311.07 231.26 305.87 228.62 300.31 C228.29 300.31 227.97 300.31 227.62 300.31 Z M-227.38 301.31 C-230.15 304.19 -231.9 307.26 -233.62 310.82 C-236.88 317.43 -240.61 323.73 -244.35 330.07 C-245.13 331.41 -245.13 331.41 -245.93 332.78 C-246.4 333.58 -246.87 334.38 -247.35 335.2 C-248.59 337.37 -248.59 337.37 -248.38 340.31 C-249.04 340.31 -249.69 340.31 -250.38 340.31 C-250.76 341.13 -251.15 341.94 -251.55 342.78 C-255.41 350.68 -259.6 358.28 -264.17 365.8 C-266.53 369.31 -266.53 369.31 -267.38 373.31 C-266.66 373.25 -265.94 373.18 -265.2 373.11 C-256.51 372.34 -247.84 371.98 -239.12 371.71 C-238.06 371.67 -237 371.63 -235.91 371.59 C-234.97 371.56 -234.02 371.53 -233.05 371.5 C-230.4 371.37 -230.4 371.37 -227.93 370.81 C-224.9 370.22 -222.01 370.13 -218.92 370.07 C-217.67 370.03 -216.42 370 -215.13 369.97 C-214.15 369.95 -214.15 369.95 -213.14 369.92 C-201.46 369.64 -189.94 369.06 -178.38 367.31 C-180.98 362.56 -183.76 358.33 -187.12 354.06 C-188.01 352.93 -188.89 351.81 -189.77 350.68 C-190.2 350.12 -190.64 349.56 -191.09 348.98 C-193.06 346.43 -194.97 343.85 -196.88 341.25 C-197.82 339.96 -197.82 339.96 -198.78 338.65 C-200.19 336.59 -201.33 334.58 -202.38 332.31 C-203.03 332.31 -203.69 332.31 -204.38 332.31 C-204.72 331.27 -204.72 331.27 -205.07 330.21 C-206.64 326.72 -208.81 323.95 -211.19 321 C-214.14 317.27 -216.94 313.59 -219.38 309.5 C-220.03 308.45 -220.69 307.4 -221.38 306.31 C-222.03 306.31 -222.69 306.31 -223.38 306.31 C-224.03 304.66 -224.69 303.01 -225.38 301.31 C-226.03 301.31 -226.69 301.31 -227.38 301.31 Z M-455.38 322.31 C-457.36 326.15 -459.19 329.8 -460.62 333.88 C-462.1 337.99 -464.16 341.74 -466.25 345.56 C-469.21 350.98 -471.74 356.41 -474.04 362.15 C-477.08 369.33 -480.77 376.22 -484.32 383.16 C-485.18 384.84 -486.03 386.51 -486.88 388.19 C-487.36 389.13 -487.84 390.08 -488.34 391.05 C-489.51 393.2 -489.51 393.2 -489.38 395.31 C-481.61 395.6 -474.28 394.71 -466.62 393.5 C-454.76 391.71 -442.92 390.37 -430.97 389.26 C-429.78 389.15 -428.58 389.04 -427.34 388.93 C-426.29 388.83 -425.23 388.74 -424.14 388.64 C-421.79 388.36 -419.66 387.91 -417.38 387.31 C-414.96 387.09 -412.54 386.91 -410.12 386.75 C-408.86 386.67 -407.6 386.58 -406.3 386.5 C-405.33 386.44 -404.37 386.37 -403.38 386.31 C-402.54 384.54 -402.54 384.54 -402.38 382.31 C-403.84 380.09 -403.84 380.09 -406 378 C-408.66 375.19 -411.08 372.46 -413.25 369.25 C-413.95 368.28 -414.65 367.31 -415.38 366.31 C-416.03 366.31 -416.69 366.31 -417.38 366.31 C-417.6 365.8 -417.83 365.28 -418.06 364.75 C-419.86 361.42 -421.87 358.17 -424.38 355.31 C-425.03 355.31 -425.69 355.31 -426.38 355.31 C-426.66 354.71 -426.95 354.12 -427.25 353.5 C-428.42 351.12 -428.42 351.12 -430.38 348.31 C-431.03 348.31 -431.69 348.31 -432.38 348.31 C-432.62 347.76 -432.87 347.2 -433.12 346.63 C-434.62 343.87 -436.43 341.66 -438.44 339.25 C-440.95 336.24 -443.45 333.24 -445.86 330.15 C-446.65 329.15 -447.44 328.15 -448.25 327.12 C-448.97 326.2 -449.69 325.28 -450.43 324.33 C-451.07 323.67 -451.71 323 -452.38 322.31 C-453.37 322.31 -454.36 322.31 -455.38 322.31 Z M453.62 323.31 C452.96 324.63 452.31 325.95 451.62 327.31 C450.96 327.31 450.31 327.31 449.62 327.31 C447.61 329.45 447.61 329.45 445.56 332.12 C444.85 333.02 444.14 333.91 443.4 334.83 C441.48 337.26 441.48 337.26 440.62 340.31 C439.96 340.31 439.31 340.31 438.62 340.31 C437.96 341.96 437.31 343.61 436.62 345.31 C435.96 345.31 435.31 345.31 434.62 345.31 C433.02 347.09 433.02 347.09 431.38 349.38 C429.07 352.44 426.73 355.39 424.19 358.25 C421.41 360.9 421.41 360.9 421.62 363.31 C420.96 363.31 420.31 363.31 419.62 363.31 C418.63 365.79 418.63 365.79 417.62 368.31 C416.96 368.31 416.31 368.31 415.62 368.31 C413.23 370.95 413.23 370.95 412.62 374.31 C411.96 374.31 411.31 374.31 410.62 374.31 C407.6 377.37 407.6 377.37 406.62 381.31 C405.96 381.31 405.31 381.31 404.62 381.31 C403.63 383.79 403.63 383.79 402.62 386.31 C403.87 386.4 403.87 386.4 405.14 386.5 C406.23 386.58 407.32 386.66 408.44 386.75 C409.52 386.83 410.6 386.91 411.71 387 C414.62 387.31 414.62 387.31 417.62 388.31 C419.58 388.47 421.54 388.59 423.5 388.69 C430.24 389.13 436.84 390.01 443.51 391.01 C453.82 392.53 464.17 393.74 474.52 394.95 C475.56 395.08 475.56 395.08 476.63 395.21 C478.54 395.43 480.45 395.66 482.36 395.88 C485.15 396.25 487.87 396.72 490.62 397.31 C490.01 393.24 488.66 390.13 486.75 386.5 C485.05 383.2 483.42 380.02 482.25 376.5 C480.84 372.47 478.79 368.8 476.75 365.06 C473.8 359.65 471.26 354.23 468.98 348.5 C466.46 342.56 463.47 336.85 460.54 331.11 C459.22 328.52 457.92 325.92 456.62 323.31 C455.63 323.31 454.64 323.31 453.62 323.31 Z " fill="red" transform="translate(643.375,197.6875)"/>
<path d="M0 0 C6.19 0.01 12.37 0 18.56 -0 C44.96 -0.02 71.35 0.13 97.75 0.58 C98.95 0.6 100.15 0.61 101.38 0.63 C112.78 0.82 124.13 1.05 135.5 1.91 C139.49 2.2 143.48 2.33 147.48 2.41 C149.03 2.45 150.57 2.49 152.12 2.52 C154.47 2.58 156.83 2.63 159.18 2.68 C174.39 3.02 174.39 3.02 181.93 3.89 C188.52 4.5 195.16 4.51 201.77 4.68 C203.75 4.73 205.72 4.79 207.69 4.85 C208.86 4.88 210.02 4.91 211.22 4.94 C214.38 5.12 217.37 5.6 220.49 6.13 C222.57 6.26 224.65 6.35 226.74 6.41 C228.49 6.47 228.49 6.47 230.27 6.52 C232.08 6.58 232.08 6.58 233.93 6.63 C240.87 6.83 247.62 7.09 254.49 8.13 C258.94 8.42 263.39 8.57 267.84 8.74 C269.19 8.79 269.19 8.79 270.56 8.85 C271.36 8.88 272.17 8.91 272.99 8.94 C275.49 9.13 275.49 9.13 278.29 9.62 C282.08 10.22 285.83 10.38 289.66 10.54 C301.22 11.07 312.72 12.18 324.24 13.29 C327.84 13.63 331.45 13.97 335.05 14.31 C337.36 14.53 339.67 14.75 341.98 14.97 C343.05 15.08 344.12 15.18 345.22 15.28 C350.02 15.75 354.74 16.29 359.49 17.13 C362.91 17.37 366.32 17.57 369.75 17.74 C373.13 17.92 376.22 18.3 379.49 19.13 C381.99 19.33 384.49 19.49 386.99 19.63 C390.99 19.85 394.63 20.15 398.49 21.13 C402.08 21.43 405.68 21.64 409.28 21.85 C412.49 22.13 412.49 22.13 415.49 23.13 C417.97 23.33 420.44 23.5 422.93 23.63 C426.89 23.84 430.64 24.12 434.49 25.13 C436.32 25.28 438.16 25.4 439.99 25.51 C446.34 25.96 452.56 26.85 458.84 27.83 C468.35 29.3 477.89 30.49 487.43 31.68 C495.15 32.66 502.83 33.78 510.49 35.13 C510.71 38.88 510.3 41.08 508.41 44.31 C507.75 45.46 507.75 45.46 507.08 46.63 C506.62 47.41 506.16 48.2 505.68 49.01 C502.61 54.29 499.77 59.46 497.49 65.13 C496.83 65.13 496.17 65.13 495.49 65.13 C495.41 65.65 495.33 66.16 495.24 66.69 C493.14 73.53 493.14 73.53 490.49 76.13 C487.32 77.35 484.12 78.18 480.83 79.05 C474.53 81.09 469.5 85.02 466.05 90.69 C462.79 97.86 460.83 104.2 463.43 111.91 C464.15 113.74 464.91 115.56 465.71 117.36 C467.71 124.49 464.25 130.08 460.87 136.13 C459.96 137.8 459.05 139.48 458.15 141.15 C457.7 141.98 457.25 142.81 456.79 143.67 C453.78 149.37 451.14 155.26 448.49 161.13 C447.83 161.13 447.17 161.13 446.49 161.13 C446.41 161.79 446.33 162.45 446.24 163.13 C445.23 167.17 443.5 172.12 440.49 175.13 C437.89 175.12 435.34 175.03 432.74 174.88 C431.94 174.84 431.15 174.79 430.33 174.75 C423.18 174.29 416.15 173.3 409.07 172.22 C402.74 171.26 396.5 170.66 390.11 170.34 C387.49 170.13 387.49 170.13 384.49 169.13 C381.84 168.93 379.21 168.76 376.55 168.63 C372.42 168.43 368.51 168.14 364.49 167.13 C361.82 166.93 359.16 166.76 356.49 166.63 C352.38 166.43 348.49 166.13 344.49 165.13 C341.86 164.93 339.25 164.76 336.62 164.63 C329.25 164.26 329.25 164.26 325.74 163.66 C322.02 163.05 318.3 162.73 314.55 162.45 C313.79 162.39 313.04 162.33 312.26 162.27 C310.65 162.14 309.04 162.01 307.43 161.89 C303.23 161.56 299.03 161.23 294.84 160.89 C294.01 160.83 293.19 160.76 292.35 160.69 C286.2 160.2 280.06 159.63 273.93 159.01 C266.34 158.24 258.77 157.77 251.15 157.47 C247.78 157.33 244.54 157.14 241.2 156.63 C235.81 155.9 230.42 155.8 224.99 155.63 C222.79 155.56 220.6 155.49 218.4 155.41 C217.43 155.38 216.47 155.35 215.47 155.32 C212.49 155.13 212.49 155.13 209.06 154.63 C205.52 154.13 202.1 153.94 198.53 153.85 C196.58 153.79 196.58 153.79 194.6 153.74 C193.25 153.7 191.9 153.67 190.55 153.63 C187.9 153.56 185.24 153.49 182.59 153.41 C181.42 153.38 180.25 153.35 179.04 153.32 C175.86 153.15 172.76 152.78 169.6 152.36 C165.8 151.95 161.99 151.91 158.16 151.85 C157.29 151.83 156.42 151.81 155.53 151.79 C152.76 151.74 150 151.68 147.24 151.63 C143.61 151.56 139.98 151.49 136.35 151.41 C135.54 151.4 134.73 151.38 133.9 151.37 C129.66 151.28 125.48 151.05 121.26 150.63 C111.65 149.8 102 149.87 92.37 149.78 C90.15 149.76 87.93 149.73 85.71 149.71 C79.73 149.64 73.76 149.59 67.78 149.54 C64.05 149.51 60.32 149.47 56.59 149.44 C19.6 149.11 -17.39 149.13 -54.38 149.51 C-56.58 149.53 -58.78 149.55 -60.98 149.57 C-66.15 149.62 -71.33 149.68 -76.5 149.74 C-78.39 149.77 -80.27 149.79 -82.16 149.81 C-94.26 149.92 -94.26 149.92 -106.33 150.9 C-110.42 151.33 -114.53 151.35 -118.65 151.41 C-119.57 151.43 -120.49 151.45 -121.44 151.47 C-125.35 151.55 -129.25 151.61 -133.16 151.68 C-136.03 151.73 -138.9 151.79 -141.77 151.85 C-143.08 151.87 -143.08 151.87 -144.42 151.89 C-149.2 151.99 -153.77 152.42 -158.51 153.13 C-160.83 153.26 -163.15 153.35 -165.47 153.41 C-167.42 153.47 -167.42 153.47 -169.4 153.52 C-170.75 153.56 -172.1 153.6 -173.45 153.63 C-183.1 153.77 -183.1 153.77 -192.7 154.63 C-199.02 155.46 -205.38 155.52 -211.75 155.74 C-217.09 155.93 -222.22 156.35 -227.51 157.13 C-231.65 157.46 -235.8 157.69 -239.95 157.94 C-253.98 158.83 -267.99 159.96 -282.01 161.13 C-283.01 161.21 -284.01 161.3 -285.04 161.38 C-291.87 161.95 -298.69 162.54 -305.51 163.13 C-306.53 163.22 -307.55 163.31 -308.61 163.4 C-311.65 163.66 -314.69 163.92 -317.73 164.19 C-319.11 164.31 -319.11 164.31 -320.53 164.43 C-321.39 164.51 -322.25 164.59 -323.13 164.67 C-324.26 164.76 -324.26 164.76 -325.41 164.86 C-327.51 165.09 -327.51 165.09 -329.55 165.64 C-333.47 166.62 -337.63 166.54 -341.66 166.74 C-345.62 166.93 -345.62 166.93 -349.5 167.63 C-353.47 168.62 -357.67 168.54 -361.75 168.74 C-364.88 168.9 -367.52 169.13 -370.51 170.13 C-372.82 170.33 -375.13 170.49 -377.45 170.63 C-381.29 170.86 -384.79 171.19 -388.51 172.13 C-391.36 172.49 -394.21 172.83 -397.07 173.13 C-397.87 173.22 -398.67 173.3 -399.5 173.39 C-401.1 173.56 -402.7 173.73 -404.3 173.9 C-406.21 174.1 -408.12 174.31 -410.03 174.52 C-410.99 174.62 -411.96 174.72 -412.95 174.82 C-413.77 174.9 -414.59 174.99 -415.44 175.08 C-417.51 175.13 -417.51 175.13 -420.51 174.13 C-421.84 171.64 -423.01 169.21 -424.13 166.63 C-426.9 160.51 -429.81 154.53 -433.01 148.63 C-437.51 140.28 -441.53 131.74 -445.51 123.13 C-445.84 122.47 -446.17 121.81 -446.51 121.13 C-445.91 119.88 -445.25 118.65 -444.57 117.44 C-441.05 109.88 -441.09 100.24 -443.82 92.38 C-445.25 89.23 -445.25 89.23 -447.11 87.55 C-448.51 86.13 -448.51 86.13 -448.51 84.13 C-449.07 83.85 -449.63 83.58 -450.21 83.29 C-451.76 82.51 -453.31 81.7 -454.84 80.88 C-460.22 77.95 -460.22 77.95 -466.2 77.07 C-470.37 75.89 -470.76 74.73 -472.95 71.07 C-474.17 68.77 -475.35 66.46 -476.51 64.13 C-477.19 62.8 -477.87 61.46 -478.55 60.13 C-480.26 56.75 -481.94 53.36 -483.6 49.97 C-485.25 46.64 -486.97 43.34 -488.7 40.05 C-489.51 38.13 -489.51 38.13 -489.51 35.13 C-484.78 33.67 -480.32 32.74 -475.38 32.19 C-468.89 31.44 -462.42 30.57 -455.95 29.63 C-454.15 29.37 -452.36 29.11 -450.57 28.86 C-449.71 28.73 -448.85 28.61 -447.97 28.48 C-438.73 27.16 -429.54 25.95 -420.22 25.38 C-417.62 25.21 -417.62 25.21 -415.58 24.63 C-411.43 23.62 -407.08 23.66 -402.82 23.41 C-399.7 23.24 -399.7 23.24 -397.51 22.63 C-393.39 21.6 -389.05 21.66 -384.82 21.41 C-382.19 21.19 -380.04 20.76 -377.51 20.13 C-375.2 19.93 -372.89 19.77 -370.57 19.63 C-366.44 19.38 -362.56 18.94 -358.51 18.13 C-355.56 17.78 -352.6 17.52 -349.63 17.26 C-347.75 17.08 -345.86 16.91 -343.98 16.73 C-342.95 16.64 -341.92 16.54 -340.86 16.44 C-335.94 15.98 -331.03 15.5 -326.12 15.02 C-286.58 11.15 -286.58 11.15 -271.35 10.47 C-268.25 10.33 -265.23 10.09 -262.16 9.63 C-256.55 8.86 -250.91 8.74 -245.25 8.52 C-241.52 8.37 -237.89 8.19 -234.2 7.63 C-227.28 6.69 -220.27 6.73 -213.29 6.52 C-212.12 6.49 -210.96 6.45 -209.75 6.41 C-208.17 6.37 -208.17 6.37 -206.56 6.32 C-203.51 6.18 -203.51 6.18 -200.53 5.63 C-197.3 5.1 -194.2 4.94 -190.93 4.85 C-189.69 4.81 -188.44 4.77 -187.16 4.74 C-185.87 4.7 -184.59 4.67 -183.26 4.63 C-173.47 4.42 -173.47 4.42 -163.73 3.63 C-155.94 2.77 -148.08 2.8 -140.26 2.63 C-137.83 2.58 -135.4 2.52 -132.97 2.47 C-131.48 2.43 -129.98 2.4 -128.48 2.37 C-124.14 2.27 -119.84 2 -115.51 1.65 C-104.47 0.83 -93.39 0.76 -82.32 0.58 C-81.1 0.55 -79.89 0.53 -78.63 0.51 C-52.42 0.07 -26.21 -0.02 0 0 Z M-23.51 55.13 C-24.8 57.19 -24.8 57.19 -25.51 59.13 C-26.17 59.13 -26.83 59.13 -27.51 59.13 C-33.57 67.27 -34.41 74.13 -33.51 84.13 C-31.35 92.2 -26.69 97.93 -19.76 102.38 C-9.81 108.03 -0.39 107.89 10.49 105.13 C10.49 104.47 10.49 103.81 10.49 103.13 C11.81 103.13 13.13 103.13 14.49 103.13 C14.49 102.47 14.49 101.81 14.49 101.13 C15.19 100.94 15.89 100.76 16.62 100.57 C22.08 97.84 25.28 93.4 27.3 87.69 C27.73 86.18 28.13 84.66 28.49 83.13 C28.74 82.14 28.74 82.14 29 81.13 C30.26 74.55 28.49 68.48 25.09 62.79 C22.54 59.21 20.58 56.9 16.49 55.13 C16.49 54.47 16.49 53.81 16.49 53.13 C2.91 46.92 -10.75 46.25 -23.51 55.13 Z M94.49 55.13 C94.49 55.79 94.49 56.45 94.49 57.13 C93.91 57.36 93.34 57.58 92.74 57.82 C88.09 60.53 85.37 65.2 83.49 70.13 C81.61 81.04 82.77 88.1 88.86 97.25 C90.6 99.25 92.06 100.13 94.49 101.13 C94.49 101.79 94.49 102.45 94.49 103.13 C103.83 108.34 114.02 109.78 124.43 106.91 C128.35 105.43 131.92 103.3 135.49 101.13 C135.49 100.47 135.49 99.81 135.49 99.13 C136.15 99.13 136.81 99.13 137.49 99.13 C138.79 97.75 138.79 97.75 139.99 95.94 C140.41 95.35 140.84 94.76 141.27 94.15 C144.21 89.28 144.88 84.95 144.87 79.32 C144.87 78.61 144.86 77.9 144.86 77.16 C144.73 71.36 143.7 67.9 140.49 63.13 C139.96 62.31 139.42 61.48 138.87 60.63 C138.41 60.14 137.96 59.64 137.49 59.13 C136.83 59.13 136.17 59.13 135.49 59.13 C135.49 58.47 135.49 57.81 135.49 57.13 C121.39 48.58 109.57 48.36 94.49 55.13 Z M-137.51 56.13 C-138.5 56.79 -139.49 57.45 -140.51 58.13 C-142.72 60.34 -143.6 62.16 -144.51 65.13 C-145.17 65.13 -145.83 65.13 -146.51 65.13 C-150.28 75.88 -150.78 84.08 -145.88 94.63 C-141.28 102.18 -134.89 105.98 -126.51 108.13 C-125.02 108.63 -125.02 108.63 -123.51 109.13 C-114.29 110.18 -106.6 107.31 -98.51 103.13 C-98.51 102.47 -98.51 101.81 -98.51 101.13 C-97.85 101.13 -97.19 101.13 -96.51 101.13 C-96.51 100.47 -96.51 99.81 -96.51 99.13 C-95.85 99.13 -95.19 99.13 -94.51 99.13 C-92.95 96.99 -92.95 96.99 -91.45 94.32 C-90.92 93.42 -90.39 92.53 -89.85 91.61 C-86.67 85.73 -86.83 79.66 -87.51 73.13 C-89.19 68.35 -91.71 64.33 -94.51 60.13 C-95.17 60.13 -95.83 60.13 -96.51 60.13 C-96.51 59.47 -96.51 58.81 -96.51 58.13 C-98.09 56.83 -98.09 56.83 -100.13 55.63 C-100.81 55.21 -101.48 54.78 -102.17 54.35 C-113.15 48.62 -127.35 49.06 -137.51 56.13 Z M207.49 63.13 C207.49 63.79 207.49 64.45 207.49 65.13 C206.83 65.13 206.17 65.13 205.49 65.13 C201.06 72.58 197.72 79.21 198.49 88.13 C199.69 92.7 201.32 96.94 203.49 101.13 C204.15 101.13 204.81 101.13 205.49 101.13 C205.74 101.73 205.98 102.32 206.24 102.94 C209.51 108.65 217.06 111.87 223.18 113.66 C233.02 115.65 241.22 113.4 249.55 108.07 C251.79 106.63 251.79 106.63 253.49 105.13 C253.49 104.47 253.49 103.81 253.49 103.13 C254.15 103.13 254.81 103.13 255.49 103.13 C260.55 93.68 262.43 86.68 260.03 76.1 C257.82 68.86 252.37 62.6 245.93 58.69 C232.55 52.61 219 53.86 207.49 63.13 Z M-259.51 68.13 C-265.52 76.05 -266.74 83.31 -265.51 93.13 C-263.91 97.4 -261.9 101.25 -259.51 105.13 C-258.85 105.13 -258.19 105.13 -257.51 105.13 C-257.51 105.79 -257.51 106.45 -257.51 107.13 C-255.01 108.93 -255.01 108.93 -251.88 110.69 C-250.84 111.31 -249.8 111.93 -248.72 112.57 C-241.47 116.09 -232.33 116.16 -224.61 113.94 C-215.14 110.29 -208.75 104.6 -204.63 95.32 C-202.11 87.6 -202.82 79.84 -206.11 72.49 C-209.48 66.81 -214.56 62.03 -220.51 59.13 C-221.21 58.78 -221.91 58.44 -222.64 58.08 C-236.49 53.49 -249.75 57.96 -259.51 68.13 Z M320.49 75.13 C315.29 81.53 314.02 88.21 314.17 96.28 C315.1 104.53 318.97 110.95 325.05 116.44 C327.41 118.41 327.41 118.41 330.49 118.13 C330.49 118.79 330.49 119.45 330.49 120.13 C338.37 123.71 348.1 123.98 356.49 122.13 C366.29 118.38 370.85 113.23 375.29 103.87 C377.96 97.78 378.46 92.28 376.24 86.01 C372.8 77.89 367.14 71.3 359.4 66.95 C345.41 61.45 331.08 65.2 320.49 75.13 Z M-362.51 69.13 C-363.84 69.47 -365.17 69.81 -366.51 70.13 C-366.51 70.79 -366.51 71.45 -366.51 72.13 C-367.08 72.21 -367.66 72.29 -368.25 72.37 C-373.76 74.22 -377.54 80.59 -380.51 85.32 C-382.92 94.51 -382.56 102.86 -377.8 111.14 C-376.71 112.81 -375.61 114.47 -374.51 116.13 C-373.85 116.13 -373.19 116.13 -372.51 116.13 C-372.51 116.79 -372.51 117.45 -372.51 118.13 C-363.98 124.47 -354.92 126.26 -344.47 124.86 C-335.09 122.88 -328.06 117.87 -322.51 110.13 C-318.69 103.24 -318.66 95 -320.32 87.44 C-321.49 84.18 -322.87 81.18 -324.51 78.13 C-325.17 78.13 -325.83 78.13 -326.51 78.13 C-326.51 77.47 -326.51 76.81 -326.51 76.13 C-327.17 76.13 -327.83 76.13 -328.51 76.13 C-328.51 75.47 -328.51 74.81 -328.51 74.13 C-333.34 70.53 -338.4 67.38 -344.51 67.13 C-345.35 67.09 -346.2 67.06 -347.07 67.02 C-352.67 66.87 -357.22 67.3 -362.51 69.13 Z " fill="red" transform="translate(633.508544921875,640.86962890625)"/>
<path d="M0 0 C1.82 -0 3.64 -0 5.46 -0.01 C10.35 -0.01 15.25 -0.01 20.15 -0 C25.31 -0 30.46 -0 35.61 -0.01 C44.27 -0.01 52.92 -0.01 61.57 -0 C71.54 0 81.5 0 91.47 -0 C100.07 -0.01 108.66 -0.01 117.25 -0.01 C122.37 -0 127.49 -0 132.6 -0.01 C137.42 -0.01 142.23 -0.01 147.05 -0 C148.8 -0 150.56 -0 152.31 -0 C161.95 -0.01 171.5 0.21 181.12 0.9 C185.72 1.21 190.32 1.33 194.93 1.41 C196.75 1.45 198.57 1.49 200.4 1.52 C203.18 1.58 205.97 1.63 208.75 1.68 C211.5 1.73 214.25 1.79 216.99 1.85 C217.82 1.86 218.64 1.88 219.49 1.89 C224.16 1.99 228.73 2.34 233.37 2.9 C236.54 3.24 239.69 3.33 242.88 3.41 C243.53 3.43 244.19 3.45 244.87 3.47 C247.63 3.54 250.39 3.61 253.14 3.68 C266.35 4.02 266.35 4.02 270.68 4.63 C276.11 5.34 281.53 5.45 287 5.63 C299.3 6.02 299.3 6.02 305.4 6.88 C310.22 7.46 315.09 7.65 319.94 7.94 C334.16 8.85 348.36 9.97 362.56 11.13 C364.11 11.25 364.11 11.25 365.68 11.38 C376.52 12.27 387.35 13.18 398.18 14.19 C399.05 14.27 399.92 14.35 400.81 14.43 C404.77 14.81 408.6 15.3 412.5 16.13 C415.9 16.38 419.3 16.57 422.7 16.73 C426.11 16.92 429.21 17.3 432.5 18.13 C435 18.33 437.5 18.49 440 18.63 C443.99 18.85 447.64 19.15 451.5 20.13 C453.83 20.33 456.16 20.49 458.5 20.63 C462.32 20.86 465.8 21.2 469.5 22.13 C470.83 22.32 472.17 22.49 473.51 22.63 C474.27 22.71 475.03 22.79 475.81 22.88 C476.99 23 476.99 23 478.19 23.13 C480.51 23.38 482.83 23.63 485.15 23.88 C486.74 24.05 488.34 24.2 489.94 24.34 C496.75 24.97 501.13 26.77 506.04 31.66 C509.72 36.22 511.3 41.3 511.5 47.13 C510.54 52.78 508.12 57.7 504.5 62.13 C503.44 62.8 502.38 63.46 501.28 64.15 C496.36 67.6 493.73 72.43 490.69 77.5 C489.46 79.49 488.24 81.47 487.01 83.45 C486.42 84.41 485.82 85.38 485.21 86.38 C482.88 90.12 480.46 93.79 478 97.44 C477.6 98.04 477.2 98.64 476.78 99.25 C475.06 101.82 473.33 104.38 471.59 106.94 C471.04 107.74 470.5 108.55 469.94 109.38 C469.48 110.04 469.03 110.71 468.56 111.4 C467.33 113.26 467.33 113.26 466.5 116.13 C465.84 116.13 465.18 116.13 464.5 116.13 C464.39 116.67 464.27 117.21 464.16 117.76 C462.04 125.36 458.49 132.61 451.76 136.96 C439.78 143.17 427.45 144.31 414.2 144.79 C413.34 144.82 412.47 144.85 411.58 144.88 C410.82 144.91 410.06 144.93 409.27 144.96 C406.96 145.1 404.72 145.35 402.42 145.64 C396.82 146.28 391.25 146.27 385.62 146.26 C384.48 146.26 383.35 146.26 382.19 146.27 C379.8 146.27 377.4 146.26 375.01 146.26 C371.43 146.25 367.85 146.26 364.28 146.27 C352.88 146.27 341.53 146.12 330.15 145.55 C323.95 145.25 317.76 145.05 311.56 144.93 C310.74 144.91 309.93 144.9 309.09 144.88 C308.26 144.86 307.42 144.85 306.56 144.83 C280.96 144.32 255.41 143.12 229.84 141.8 C225.31 141.57 220.79 141.34 216.26 141.12 C211.85 140.89 207.44 140.67 203.03 140.45 C200.95 140.34 198.87 140.24 196.79 140.13 C193.91 139.98 191.03 139.84 188.15 139.69 C187.31 139.64 186.48 139.6 185.62 139.56 C180.63 139.3 175.66 138.88 170.69 138.35 C167.75 138.05 164.82 137.93 161.86 137.85 C160.71 137.81 159.55 137.77 158.36 137.73 C155.98 137.66 153.6 137.59 151.22 137.52 C142.21 137.23 142.21 137.23 137.98 136.63 C132.53 135.85 127.06 135.84 121.56 135.69 C94 134.8 94 134.8 88.5 131.13 C91.55 130.11 93.81 129.95 97.01 129.85 C98.64 129.79 98.64 129.79 100.31 129.73 C101.44 129.7 102.58 129.67 103.75 129.63 C105.98 129.56 108.22 129.49 110.45 129.41 C111.44 129.38 112.43 129.35 113.46 129.32 C116.57 129.17 116.57 129.17 119.92 128.63 C123.56 128.12 127.09 127.94 130.76 127.85 C131.43 127.83 132.1 127.81 132.8 127.79 C134.93 127.73 137.06 127.68 139.19 127.63 C150.31 127.38 150.31 127.38 161.41 126.63 C169.32 125.91 177.25 125.81 185.19 125.63 C193.89 125.43 202.58 125.22 211.26 124.66 C222.95 123.91 234.66 123.65 246.37 123.31 C253.56 123.11 260.76 122.89 267.96 122.67 C268.69 122.65 269.42 122.62 270.17 122.6 C284.47 122.17 298.77 121.7 313.07 121.19 C315.46 121.11 317.84 121.03 320.22 120.95 C330.94 120.58 341.64 120.19 352.33 119.35 C359.54 118.85 366.77 118.77 373.99 118.61 C381.04 118.41 387.65 117.82 394.5 116.13 C385.04 113.3 375.44 111.44 365.75 109.63 C364.94 109.48 364.12 109.32 363.29 109.16 C350.7 106.79 338.11 104.77 325.36 103.41 C323.5 103.13 323.5 103.13 320.5 102.13 C318.17 101.93 315.83 101.77 313.5 101.63 C306.83 101.24 306.83 101.24 303.5 100.13 C301.19 99.93 298.88 99.77 296.56 99.63 C289.92 99.24 289.92 99.24 287.62 98.65 C285.16 98.05 282.79 97.81 280.27 97.59 C279.22 97.5 278.18 97.4 277.1 97.31 C275.97 97.21 274.83 97.11 273.67 97.01 C272.48 96.9 271.3 96.8 270.08 96.69 C266.28 96.35 262.48 96.02 258.69 95.69 C256.2 95.47 253.72 95.25 251.23 95.03 C246.33 94.6 241.43 94.17 236.53 93.74 C232.01 93.35 227.49 92.95 222.97 92.54 C213.4 91.69 203.86 90.86 194.25 90.57 C189.05 90.39 183.89 90.19 178.72 89.65 C171.05 88.94 163.36 88.79 155.65 88.59 C154.02 88.55 152.38 88.51 150.74 88.46 C146.39 88.35 142.04 88.24 137.69 88.13 C134.99 88.07 132.3 88 129.6 87.93 C109.17 87.42 88.75 86.93 68.31 86.94 C67.51 86.94 66.7 86.94 65.87 86.94 C56.7 86.94 47.57 87.24 38.4 87.75 C26.64 88.37 14.86 88.49 3.08 88.68 C0.01 88.73 -3.07 88.79 -6.14 88.85 C-7.07 88.86 -7.99 88.88 -8.94 88.89 C-14.21 88.99 -19.28 89.42 -24.5 90.13 C-26.01 90.22 -27.51 90.28 -29.02 90.31 C-44.76 90.71 -60.35 92.13 -76.02 93.67 C-85.34 94.58 -94.65 95.37 -104 95.91 C-108.76 96.21 -113.5 96.64 -118.25 97.13 C-119.1 97.21 -119.95 97.29 -120.82 97.38 C-121.64 97.46 -122.46 97.54 -123.3 97.63 C-124.01 97.7 -124.73 97.77 -125.47 97.85 C-127.53 98.13 -129.48 98.62 -131.5 99.13 C-134.83 99.43 -138.17 99.64 -141.51 99.85 C-144.55 100.02 -144.55 100.02 -147.5 101.13 C-150.82 101.44 -154.14 101.64 -157.47 101.85 C-160.54 102.02 -160.54 102.02 -163.5 103.13 C-164.96 103.26 -166.42 103.36 -167.88 103.44 C-176.16 104.15 -184.25 105.91 -192.4 107.52 C-195.78 108.18 -199.18 108.81 -202.57 109.43 C-203.75 109.65 -204.94 109.87 -206.16 110.1 C-208.48 110.53 -210.81 110.96 -213.15 111.38 C-214.21 111.58 -215.27 111.78 -216.36 111.98 C-217.3 112.15 -218.25 112.33 -219.22 112.51 C-221.68 112.97 -221.68 112.97 -223.5 115.13 C-220.29 116.07 -217.3 116.31 -213.96 116.41 C-212.35 116.47 -212.35 116.47 -210.7 116.52 C-209.58 116.56 -208.47 116.59 -207.31 116.63 C-194.94 117.02 -194.94 117.02 -190.19 117.63 C-183.39 118.46 -176.53 118.46 -169.69 118.63 C-154.25 119.01 -154.25 119.01 -147.41 119.64 C-141.24 120.2 -135.09 120.34 -128.9 120.46 C-109.09 120.86 -89.3 121.7 -69.51 122.53 C-67.08 122.63 -64.65 122.73 -62.22 122.83 C-58.33 122.99 -54.43 123.15 -50.53 123.32 C-49.08 123.38 -47.64 123.44 -46.19 123.5 C-37.96 123.84 -29.76 124.3 -21.55 124.91 C-17.93 125.17 -14.33 125.32 -10.7 125.41 C-8.74 125.47 -8.74 125.47 -6.74 125.52 C-4.74 125.58 -2.73 125.63 -0.73 125.68 C6.2 125.86 13.06 126.12 19.95 126.89 C26.53 127.5 33.17 127.54 39.77 127.73 C45.44 127.92 50.89 128.3 56.5 129.13 C61.25 129.4 66 129.52 70.76 129.65 C71.71 129.68 72.66 129.72 73.64 129.75 C74.5 129.78 75.36 129.8 76.25 129.83 C78.5 130.13 78.5 130.13 81.5 132.13 C68.88 136.33 53.67 135.45 40.55 135.79 C35.23 135.93 30.05 136.13 24.78 136.89 C18.78 137.52 12.71 137.48 6.69 137.63 C3.89 137.7 1.09 137.77 -1.71 137.85 C-2.94 137.88 -4.17 137.91 -5.44 137.94 C-8.5 138.05 -11.52 138.31 -14.56 138.6 C-21.47 139.26 -28.39 139.53 -35.32 139.81 C-36.76 139.87 -38.2 139.93 -39.64 139.99 C-44.3 140.19 -48.97 140.38 -53.63 140.57 C-54.43 140.6 -55.23 140.63 -56.06 140.67 C-63.49 140.97 -70.93 141.27 -78.36 141.56 C-86.82 141.9 -95.27 142.25 -103.73 142.62 C-131.91 143.85 -160.06 144.33 -188.26 144.37 C-190.83 144.38 -193.4 144.39 -195.97 144.4 C-267.3 144.6 -267.3 144.6 -284.5 133.13 C-284.5 132.47 -284.5 131.81 -284.5 131.13 C-285.49 130.8 -286.48 130.47 -287.5 130.13 C-288.61 128.34 -288.61 128.34 -289.69 126.07 C-292.03 121.62 -294.82 118.54 -298.45 115.11 C-301.14 112.52 -303.53 109.72 -305.96 106.89 C-307.22 105.45 -308.57 104.09 -309.94 102.75 C-311.5 101.13 -311.5 101.13 -311.5 99.13 C-312.16 99.13 -312.82 99.13 -313.5 99.13 C-313.5 98.47 -313.5 97.81 -313.5 97.13 C-314.16 97.13 -314.82 97.13 -315.5 97.13 C-317.01 95.67 -317.01 95.67 -318.63 93.75 C-319.17 93.13 -319.7 92.5 -320.26 91.86 C-321.5 90.13 -321.5 90.13 -321.5 88.13 C-322.16 88.13 -322.82 88.13 -323.5 88.13 C-323.5 87.47 -323.5 86.81 -323.5 86.13 C-324.16 86.13 -324.82 86.13 -325.5 86.13 C-325.5 85.47 -325.5 84.81 -325.5 84.13 C-326.16 84.13 -326.82 84.13 -327.5 84.13 C-328.84 82.8 -328.84 82.8 -330.44 80.88 C-333.59 77.18 -336.8 73.54 -340.06 69.94 C-340.51 69.44 -340.96 68.94 -341.42 68.43 C-343.71 65.91 -346.06 63.6 -348.69 61.45 C-353.14 57.78 -355.11 54.73 -355.95 49.11 C-356.31 42.17 -355.46 37.62 -351.3 32.03 C-343.22 23.49 -332.54 22.92 -321.28 22.34 C-318.62 22.22 -318.62 22.22 -316.57 21.64 C-312.42 20.62 -308.07 20.66 -303.81 20.41 C-300.7 20.24 -300.7 20.24 -298.53 19.63 C-294.16 18.55 -289.52 18.66 -285.03 18.41 C-281.74 18.25 -281.74 18.25 -279.53 17.63 C-276.26 16.82 -272.92 16.79 -269.56 16.63 C-264.33 16.4 -264.33 16.4 -259.16 15.65 C-256.16 15.06 -253.21 14.78 -250.16 14.52 C-248.23 14.35 -248.23 14.35 -246.26 14.18 C-244.84 14.06 -243.42 13.94 -242 13.82 C-238.93 13.55 -235.87 13.29 -232.8 13.02 C-231.99 12.95 -231.17 12.88 -230.33 12.81 C-223.88 12.25 -217.43 11.67 -210.98 11.08 C-208.02 10.81 -205.06 10.54 -202.1 10.27 C-200.19 10.1 -198.29 9.92 -196.38 9.74 C-185.45 8.73 -174.54 7.89 -163.57 7.48 C-159.77 7.33 -156.04 7.11 -152.27 6.62 C-149 6.19 -145.83 5.95 -142.53 5.85 C-141.47 5.81 -140.4 5.77 -139.3 5.73 C-137.1 5.66 -134.9 5.59 -132.7 5.52 C-127.68 5.35 -122.79 5.07 -117.81 4.37 C-111.22 3.69 -104.53 3.74 -97.91 3.58 C-95.87 3.52 -93.83 3.47 -91.78 3.41 C-89.97 3.37 -89.97 3.37 -88.13 3.32 C-84.93 3.15 -81.81 2.78 -78.64 2.36 C-74.63 1.93 -70.61 1.91 -66.59 1.85 C-65.19 1.82 -65.19 1.82 -63.76 1.79 C-60.8 1.73 -57.84 1.68 -54.88 1.63 C-51.94 1.58 -49 1.52 -46.05 1.47 C-44.23 1.43 -42.41 1.4 -40.59 1.37 C-35.81 1.28 -31.08 1.02 -26.31 0.63 C-17.54 -0.01 -8.79 -0.01 0 0 Z M27.5 42.13 C27.46 44.13 27.46 46.13 27.5 48.13 C28.57 49.42 28.57 49.42 31.09 49.24 C32.22 49.24 33.34 49.23 34.5 49.23 C36.32 49.22 36.32 49.22 38.18 49.22 C39.46 49.21 40.74 49.2 42.06 49.19 C43.99 49.19 43.99 49.19 45.95 49.18 C49.13 49.17 52.32 49.15 55.5 49.13 C55.22 45.31 55.22 45.31 53.5 42.13 C51.57 42.04 49.64 42.02 47.71 42.03 C46.54 42.03 45.37 42.04 44.17 42.04 C42.94 42.05 41.71 42.06 40.44 42.07 C39.2 42.07 37.96 42.08 36.69 42.08 C33.63 42.09 30.56 42.11 27.5 42.13 Z M65.5 42.13 C65.5 44.11 65.5 46.09 65.5 48.13 C68.21 49.49 70.35 49.24 73.38 49.23 C75.13 49.22 75.13 49.22 76.92 49.22 C78.75 49.2 78.75 49.2 80.62 49.19 C82.47 49.19 82.47 49.19 84.35 49.18 C87.4 49.17 90.45 49.15 93.5 49.13 C94.95 46.73 94.95 46.73 93.5 42.13 C84.26 42.13 75.02 42.13 65.5 42.13 Z M104.5 42.13 C104.46 44.13 104.46 46.13 104.5 48.13 C105.57 49.42 105.57 49.42 108.09 49.24 C109.22 49.24 110.34 49.23 111.5 49.23 C113.32 49.22 113.32 49.22 115.18 49.22 C116.46 49.21 117.74 49.2 119.06 49.19 C120.99 49.19 120.99 49.19 122.95 49.18 C126.13 49.17 129.32 49.15 132.5 49.13 C132.5 47.15 132.5 45.17 132.5 43.13 C129.78 41.77 127.65 42.02 124.62 42.03 C122.87 42.04 122.87 42.04 121.08 42.04 C119.86 42.05 118.63 42.06 117.37 42.07 C116.14 42.07 114.91 42.08 113.64 42.08 C110.59 42.09 107.55 42.11 104.5 42.13 Z M-11.5 43.13 C-11.3 49.53 -11.3 49.53 -9.5 51.13 C-6.66 51.26 -3.85 51.32 -1 51.32 C-0.18 51.32 0.63 51.32 1.48 51.32 C7.08 51.27 12.1 50.73 17.5 49.13 C16.84 47.15 16.18 45.17 15.5 43.13 C6.59 43.13 -2.32 43.13 -11.5 43.13 Z M142.5 44.13 C142.46 45.8 142.46 47.46 142.5 49.13 C149.01 50.8 154.85 51.39 161.56 51.25 C162.43 51.25 163.29 51.24 164.18 51.23 C166.29 51.2 168.39 51.17 170.5 51.13 C170.5 48.49 170.5 45.85 170.5 43.13 C166.02 43.1 161.54 43.08 157.06 43.07 C155.78 43.06 154.5 43.05 153.18 43.04 C151.97 43.04 150.75 43.04 149.5 43.03 C148.38 43.03 147.25 43.02 146.09 43.02 C143.57 42.83 143.57 42.83 142.5 44.13 Z M-40.94 43.63 C-41.86 43.68 -42.78 43.72 -43.73 43.77 C-45.99 43.89 -48.25 44.01 -50.5 44.13 C-50.19 45.44 -49.88 46.76 -49.56 48.07 C-49.39 48.8 -49.22 49.53 -49.04 50.28 C-48.66 52.13 -48.66 52.13 -47.5 53.13 C-44.64 53.26 -41.81 53.31 -38.94 53.32 C-38.15 53.33 -37.37 53.34 -36.55 53.35 C-31.21 53.37 -26.64 52.62 -21.5 51.13 C-22.16 48.49 -22.82 45.85 -23.5 43.13 C-29.33 43.07 -35.12 43.32 -40.94 43.63 Z M182.5 44.13 C181.84 46.44 181.18 48.75 180.5 51.13 C186.67 52.96 192.53 53.38 198.94 53.44 C200.14 53.47 200.14 53.47 201.38 53.49 C203.94 53.53 203.94 53.53 207.5 53.13 C209.65 49.9 209.7 48.85 209.5 45.13 C206.84 43.8 204.81 44.02 201.83 44.03 C200.15 44.04 200.15 44.04 198.44 44.04 C196.67 44.05 196.67 44.05 194.87 44.07 C193.69 44.07 192.51 44.08 191.29 44.08 C188.36 44.09 185.43 44.11 182.5 44.13 Z M-90.5 46.13 C-89.77 47.78 -89.01 49.43 -88.25 51.07 C-87.83 51.98 -87.42 52.9 -86.99 53.84 C-85.73 56.21 -85.73 56.21 -83.7 57.01 C-80.85 57.17 -78.32 56.64 -75.5 56.13 C-72.71 55.88 -69.92 55.72 -67.13 55.57 C-66.39 55.52 -65.65 55.48 -64.9 55.44 C-63.1 55.33 -61.3 55.23 -59.5 55.13 C-60.11 51.57 -61.08 48.45 -62.5 45.13 C-71.91 45 -81.12 45.33 -90.5 46.13 Z M221.5 45.13 C218.85 48.5 218.85 48.5 219.5 55.13 C228.08 55.79 236.66 56.45 245.5 57.13 C247.39 51.56 247.39 51.56 247.5 46.13 C243.21 45.88 238.92 45.66 234.62 45.44 C233.4 45.37 232.18 45.3 230.92 45.22 C229.75 45.17 228.58 45.11 227.38 45.06 C226.3 45 225.22 44.94 224.11 44.88 C223.25 44.96 222.39 45.04 221.5 45.13 Z M259.5 47.13 C256.98 51.43 256.98 51.43 257.5 58.13 C269.38 59.61 269.38 59.61 281.5 61.13 C285.24 56.71 285.24 56.71 286.5 48.13 C277.59 47.8 268.68 47.47 259.5 47.13 Z M-128.5 48.13 C-127.09 52.96 -125.07 56.85 -122.5 61.13 C-119.08 60.82 -115.67 60.51 -112.25 60.19 C-110.8 60.06 -110.8 60.06 -109.32 59.93 C-108.38 59.84 -107.45 59.75 -106.49 59.66 C-105.2 59.55 -105.2 59.55 -103.88 59.43 C-101.69 59.15 -99.63 58.72 -97.5 58.13 C-98.11 54 -99.54 50.8 -101.5 47.13 C-110.56 46.98 -119.48 47.44 -128.5 48.13 Z M-157.38 49.63 C-158.35 49.68 -159.33 49.72 -160.33 49.77 C-162.72 49.89 -165.11 50.01 -167.5 50.13 C-164.04 58.76 -164.04 58.76 -158.5 66.13 C-155.38 67.16 -152.7 66.67 -149.5 66.13 C-148.38 65.98 -147.26 65.84 -146.1 65.68 C-140.12 65.03 -140.12 65.03 -134.5 63.13 C-135.08 59.37 -136.15 56.6 -138.06 53.32 C-138.75 52.13 -138.75 52.13 -139.44 50.92 C-139.79 50.33 -140.14 49.74 -140.5 49.13 C-146.14 49.05 -151.75 49.35 -157.38 49.63 Z M297.5 50.13 C296.96 51.54 296.45 52.96 295.94 54.38 C295.65 55.17 295.36 55.96 295.06 56.77 C294.44 59.36 294.43 60.7 295.5 63.13 C299.32 64.4 303 64.55 307 64.85 C309.5 65.13 309.5 65.13 311.5 66.13 C312.87 66.2 314.25 66.21 315.62 66.19 C317.54 66.16 317.54 66.16 319.5 66.13 C322.25 61.25 323.47 56.58 324.5 51.13 C321 50.33 317.78 50.01 314.2 50.03 C313.22 50.03 312.24 50.04 311.24 50.04 C309.73 50.05 309.73 50.05 308.19 50.07 C307.16 50.07 306.13 50.08 305.07 50.08 C302.55 50.09 300.02 50.11 297.5 50.13 Z M-205.5 54.13 C-205.5 55.12 -205.5 56.11 -205.5 57.13 C-204.84 57.13 -204.18 57.13 -203.5 57.13 C-203.25 57.84 -202.99 58.56 -202.73 59.3 C-200.57 64.29 -197.45 68.4 -193.5 72.13 C-189.95 72.93 -188.88 72.9 -185.5 72.13 C-184.31 71.9 -183.11 71.66 -181.88 71.42 C-178.41 70.71 -174.95 69.94 -171.5 69.13 C-171.5 64.8 -172.47 62.86 -174.5 59.13 C-175.16 59.13 -175.82 59.13 -176.5 59.13 C-176.5 58.14 -176.5 57.15 -176.5 56.13 C-177.16 56.13 -177.82 56.13 -178.5 56.13 C-178.83 54.81 -179.16 53.49 -179.5 52.13 C-192.64 51.78 -192.64 51.78 -205.5 54.13 Z M336.5 52.13 C333.64 57.47 331.77 62.21 330.5 68.13 C337.88 71 346.57 72.72 354.5 72.13 C356.31 70.05 357.31 68.55 358.5 66.13 C358.87 65.37 359.25 64.61 359.63 63.83 C361.86 59.18 361.86 59.18 362.5 54.13 C353.81 52.92 345.3 51.75 336.5 52.13 Z M-228.86 55.31 C-230.47 55.4 -232.08 55.48 -233.69 55.57 C-234.92 55.63 -234.92 55.63 -236.17 55.69 C-240.47 55.81 -240.47 55.81 -244.5 57.13 C-243.26 60.57 -241.94 63.38 -239.5 66.13 C-238.84 66.13 -238.18 66.13 -237.5 66.13 C-237.24 66.69 -236.98 67.26 -236.71 67.84 C-235.38 70.36 -233.85 72.54 -232.13 74.82 C-231.54 75.6 -230.96 76.39 -230.35 77.2 C-228.26 79.38 -227.41 79.67 -224.5 80.13 C-221.39 79.82 -218.36 79.07 -215.31 78.38 C-214.48 78.21 -213.65 78.04 -212.79 77.86 C-212 77.69 -211.21 77.51 -210.4 77.33 C-209.67 77.17 -208.95 77.02 -208.2 76.85 C-207.64 76.61 -207.08 76.38 -206.5 76.13 C-206.01 74.64 -206.01 74.64 -205.5 73.13 C-206 72.14 -206 72.14 -206.5 71.13 C-207.16 71.13 -207.82 71.13 -208.5 71.13 C-208.74 70.42 -208.98 69.72 -209.23 68.99 C-210.71 65.67 -212.55 63.16 -214.81 60.32 C-215.57 59.34 -216.33 58.37 -217.11 57.36 C-219.24 54.96 -219.24 54.96 -221.72 54.78 C-224.12 55.08 -226.44 55.22 -228.86 55.31 Z M374.5 56.13 C373.54 57.86 372.58 59.59 371.62 61.32 C371.09 62.28 370.56 63.24 370.01 64.23 C367.28 69.43 367.28 69.43 366.5 75.13 C368.81 75.81 371.12 76.47 373.44 77.13 C374.4 77.42 374.4 77.42 375.38 77.71 C380.53 79.14 385.15 79.3 390.5 79.13 C391.96 76.57 393.42 74.01 394.87 71.44 C395.29 70.72 395.7 70 396.12 69.26 C398.18 65.62 400.08 62.08 401.5 58.13 C392.58 55.49 383.7 55.95 374.5 56.13 Z M-266.92 58.59 C-267.95 58.73 -268.97 58.87 -270.03 59.02 C-271.09 59.18 -272.16 59.34 -273.25 59.5 C-274.33 59.66 -275.41 59.81 -276.52 59.97 C-279.18 60.34 -281.84 60.73 -284.5 61.13 C-284.08 61.61 -283.66 62.09 -283.22 62.59 C-282.68 63.22 -282.13 63.85 -281.56 64.5 C-280.75 65.44 -280.75 65.44 -279.91 66.4 C-278.5 68.13 -278.5 68.13 -277.5 70.13 C-276.84 70.13 -276.18 70.13 -275.5 70.13 C-275.5 70.79 -275.5 71.45 -275.5 72.13 C-274.84 72.13 -274.18 72.13 -273.5 72.13 C-273.23 72.72 -272.96 73.31 -272.68 73.93 C-270.78 77.48 -268 80.08 -265.19 82.94 C-264.62 83.55 -264.05 84.16 -263.46 84.79 C-261.88 86.41 -260.37 87.85 -258.5 89.13 C-255.92 89.25 -255.92 89.25 -253.5 88.13 C-252.51 87.92 -251.52 87.7 -250.49 87.48 C-249.46 87.24 -248.44 87 -247.38 86.75 C-246.34 86.52 -245.31 86.29 -244.24 86.04 C-241.49 85.13 -240.3 84.35 -238.5 82.13 C-239.95 80.29 -241.41 78.46 -242.88 76.63 C-244.09 75.1 -244.09 75.1 -245.34 73.54 C-246.05 72.74 -246.77 71.95 -247.5 71.13 C-248.16 71.13 -248.82 71.13 -249.5 71.13 C-249.79 70.53 -250.08 69.93 -250.38 69.32 C-251.55 66.94 -251.55 66.94 -253.5 64.13 C-254.16 64.13 -254.82 64.13 -255.5 64.13 C-255.75 63.51 -256 62.89 -256.25 62.25 C-258.84 57.85 -262.21 57.91 -266.92 58.59 Z M412.03 60.53 C411.69 61.18 411.35 61.83 411 62.5 C410.6 63.23 410.2 63.96 409.79 64.71 C409.15 65.91 409.15 65.91 408.5 67.13 C407.44 68.84 406.38 70.55 405.31 72.25 C403.19 75.79 401.56 79.11 400.5 83.13 C403.87 85.03 407.17 85.86 410.94 86.69 C412.05 86.94 413.16 87.19 414.31 87.45 C417.03 88.03 419.76 88.59 422.5 89.13 C424.23 86.67 425.95 84.21 427.67 81.74 C428.73 80.23 429.78 78.73 430.85 77.23 C432.7 74.6 433.5 73.44 433.5 70.13 C434.16 70.13 434.82 70.13 435.5 70.13 C437.86 65.87 437.86 65.87 438.5 61.13 C435.46 60.79 432.42 60.46 429.37 60.13 C428.09 59.99 428.09 59.99 426.78 59.84 C418.91 58.31 418.91 58.31 412.03 60.53 Z M-316.5 65.13 C-316.08 65.61 -315.66 66.09 -315.22 66.59 C-314.68 67.22 -314.13 67.85 -313.56 68.5 C-312.75 69.44 -312.75 69.44 -311.91 70.4 C-310.5 72.13 -310.5 72.13 -309.5 74.13 C-308.84 74.13 -308.18 74.13 -307.5 74.13 C-307.25 74.69 -307.01 75.24 -306.75 75.82 C-305.27 78.55 -303.57 80.81 -301.5 83.13 C-300.84 83.13 -300.18 83.13 -299.5 83.13 C-299.5 83.79 -299.5 84.45 -299.5 85.13 C-298.84 85.13 -298.18 85.13 -297.5 85.13 C-297.5 85.79 -297.5 86.45 -297.5 87.13 C-296.84 87.13 -296.18 87.13 -295.5 87.13 C-295.26 87.68 -295.02 88.23 -294.77 88.8 C-293.22 91.66 -291.36 93.97 -289.25 96.44 C-288.5 97.35 -287.76 98.25 -286.99 99.18 C-284.59 101.5 -284.59 101.5 -281.2 100.92 C-280.31 100.66 -279.42 100.4 -278.5 100.13 C-278.5 99.47 -278.5 98.81 -278.5 98.13 C-277.67 97.97 -277.67 97.97 -276.81 97.82 C-274.06 97 -271.91 95.67 -269.5 94.13 C-270 92.64 -270 92.64 -270.5 91.13 C-271.16 91.13 -271.82 91.13 -272.5 91.13 C-272.73 90.58 -272.95 90.02 -273.19 89.45 C-274.89 86.44 -277.08 84.4 -279.56 82 C-284.4 77.32 -284.4 77.32 -285.5 75.13 C-286.16 75.13 -286.82 75.13 -287.5 75.13 C-287.5 74.47 -287.5 73.81 -287.5 73.13 C-288.16 73.13 -288.82 73.13 -289.5 73.13 C-289.5 72.47 -289.5 71.81 -289.5 71.13 C-290.16 71.13 -290.82 71.13 -291.5 71.13 C-291.5 70.47 -291.5 69.81 -291.5 69.13 C-292.16 69.13 -292.82 69.13 -293.5 69.13 C-293.79 68.51 -294.08 67.89 -294.38 67.25 C-295.44 65 -295.44 65 -297.5 63.13 C-303.98 62.3 -310.26 63.44 -316.5 65.13 Z M451.5 63.13 C451.5 63.79 451.5 64.45 451.5 65.13 C450.84 65.13 450.18 65.13 449.5 65.13 C449.25 65.61 449.01 66.08 448.76 66.57 C445.53 72.61 441.82 78.22 437.89 83.81 C437.47 84.43 437.04 85.04 436.61 85.68 C436.23 86.22 435.84 86.77 435.45 87.33 C434.17 89.55 434.17 89.55 433.5 94.13 C441.91 98.09 441.91 98.09 450.5 102.13 C452.45 99.53 452.45 99.53 454.44 96.88 C455.17 95.9 455.9 94.93 456.65 93.93 C458.25 91.5 459.07 89.95 459.5 87.13 C460.16 87.13 460.82 87.13 461.5 87.13 C461.78 86.61 462.06 86.09 462.35 85.55 C465.37 80 468.66 74.69 472.14 69.41 C473.67 67.29 473.67 67.29 473.5 65.13 C470.96 64.79 468.42 64.46 465.87 64.13 C465.16 64.03 464.45 63.94 463.71 63.84 C459.61 63.31 455.65 63.02 451.5 63.13 Z " fill="red" transform="translate(566.50146484375,803.87060546875)"/>
<path d="M0 0 C4.34 0 8.69 0 13.03 -0 C20.32 -0 27.6 -0 34.89 0 C43.26 0.01 51.63 0.01 60 0 C67.25 -0 74.49 -0 81.74 -0 C86.04 0 90.35 0 94.65 -0 C127.2 -0.02 127.2 -0.02 140.68 0.9 C145.1 1.17 149.51 1.27 153.93 1.35 C154.83 1.36 155.73 1.38 156.66 1.39 C157.39 1.4 158.11 1.41 158.86 1.43 C187.04 1.87 215.16 3.37 243.29 4.95 C246.28 5.12 249.26 5.29 252.24 5.45 C257.01 5.72 261.78 5.99 266.55 6.26 C267.23 6.3 267.91 6.34 268.6 6.38 C274.85 6.73 281.06 7.17 287.27 7.91 C292.72 8.46 298.2 8.54 303.67 8.74 C305.07 8.8 305.07 8.8 306.51 8.85 C307.34 8.88 308.18 8.91 309.05 8.94 C311.59 9.14 313.99 9.63 316.49 10.13 C318.05 10.26 319.61 10.35 321.18 10.42 C322.47 10.47 322.47 10.47 323.8 10.53 C324.69 10.56 325.57 10.6 326.49 10.63 C328.26 10.7 330.03 10.78 331.8 10.85 C332.97 10.9 332.97 10.9 334.17 10.94 C336.49 11.13 336.49 11.13 338.98 11.63 C341.5 12.14 343.86 12.32 346.43 12.42 C347.35 12.45 348.26 12.49 349.2 12.53 C351.11 12.6 353.01 12.67 354.92 12.74 C356.29 12.8 356.29 12.8 357.68 12.85 C358.51 12.88 359.34 12.91 360.19 12.94 C362.4 13.13 364.35 13.58 366.49 14.13 C369.31 14.34 372.11 14.5 374.93 14.63 C376.43 14.7 377.93 14.78 379.42 14.85 C380.09 14.88 380.75 14.91 381.43 14.94 C383.49 15.13 383.49 15.13 385.79 15.62 C389.11 16.25 392.35 16.41 395.72 16.58 C404.46 17.07 413.12 18 421.8 19.01 C423.37 19.19 424.94 19.37 426.51 19.54 C428.88 19.81 431.25 20.08 433.62 20.35 C438.64 20.93 443.67 21.49 448.69 22.03 C449.93 22.16 451.17 22.3 452.45 22.44 C454.75 22.69 457.06 22.94 459.37 23.18 C460.39 23.29 461.41 23.41 462.46 23.52 C463.34 23.62 464.22 23.71 465.13 23.81 C467.31 24.11 469.36 24.59 471.49 25.13 C475.08 25.44 478.68 25.64 482.28 25.85 C485.49 26.13 485.49 26.13 488.49 27.13 C490.65 27.34 492.82 27.5 494.99 27.63 C498.43 27.85 501.22 28.04 504.49 29.13 C506.49 29.33 508.49 29.5 510.49 29.63 C513.76 29.86 516.37 30.09 519.49 31.13 C521.39 31.38 523.29 31.59 525.2 31.78 C526.34 31.9 527.47 32.02 528.65 32.14 C529.85 32.26 531.06 32.38 532.3 32.51 C557.3 35.17 557.3 35.17 564.49 39.13 C564.49 39.79 564.49 40.45 564.49 41.13 C565.07 41.32 565.65 41.51 566.24 41.7 C570.07 44.14 571.76 47.85 573.1 52.06 C574.24 57.79 572.62 62.29 569.49 67.13 C565.83 71.28 561.98 74.04 556.49 75.13 C549.57 75.34 542.92 74.75 536.05 73.88 C534.98 73.75 533.9 73.62 532.79 73.48 C523.7 72.34 514.66 70.97 505.62 69.55 C493.53 67.66 481.51 66.07 469.28 65.38 C466.49 65.13 466.49 65.13 463.49 64.13 C461.18 63.93 458.87 63.77 456.55 63.63 C452.71 63.41 449.21 63.07 445.49 62.13 C443.16 61.94 440.83 61.77 438.49 61.63 C431.9 61.24 431.9 61.24 429.71 60.66 C426.73 59.95 423.79 59.76 420.75 59.52 C419.35 59.41 417.96 59.3 416.57 59.18 C415.84 59.12 415.1 59.07 414.34 59.01 C398.99 57.78 383.67 56.25 368.37 54.49 C360.34 53.58 352.34 52.86 344.27 52.48 C339.96 52.27 335.76 51.77 331.49 51.13 C329.95 51.01 328.41 50.92 326.86 50.85 C325.65 50.8 325.65 50.8 324.41 50.74 C322.75 50.67 321.09 50.6 319.43 50.53 C316.12 50.38 312.92 50.21 309.66 49.63 C303.55 48.67 297.34 48.73 291.17 48.53 C290.13 48.49 289.09 48.45 288.02 48.42 C287.08 48.39 286.14 48.35 285.17 48.32 C282.49 48.13 282.49 48.13 280.03 47.63 C277.11 47.06 274.32 46.94 271.34 46.85 C270.17 46.82 269 46.78 267.8 46.74 C266.58 46.7 265.37 46.67 264.12 46.63 C261.71 46.56 259.31 46.49 256.91 46.42 C255.84 46.39 254.78 46.35 253.68 46.32 C250.49 46.13 250.49 46.13 247.04 45.63 C243.41 45.12 239.9 44.94 236.23 44.85 C235.56 44.83 234.89 44.82 234.19 44.8 C232.06 44.74 229.93 44.69 227.8 44.63 C225.69 44.58 223.58 44.53 221.47 44.47 C219.54 44.42 217.61 44.37 215.68 44.32 C212.35 44.21 209.04 43.94 205.72 43.65 C199.76 43.13 193.81 42.84 187.82 42.63 C186.71 42.59 185.59 42.55 184.44 42.51 C180.73 42.38 177.01 42.26 173.3 42.13 C172.01 42.09 170.72 42.05 169.39 42 C144.76 41.19 120.13 40.8 95.49 40.51 C94.18 40.49 94.18 40.49 92.84 40.48 C60.88 40.1 28.95 40.15 -3.01 40.51 C-3.93 40.52 -4.85 40.53 -5.79 40.54 C-31.37 40.83 -56.94 41.27 -82.51 42.13 C-83.77 42.18 -85.03 42.22 -86.33 42.26 C-89.87 42.38 -93.41 42.51 -96.95 42.63 C-97.95 42.67 -98.96 42.71 -99.99 42.74 C-105.93 42.97 -111.83 43.39 -117.75 43.91 C-121.32 44.2 -124.86 44.33 -128.43 44.42 C-129.82 44.45 -131.21 44.49 -132.6 44.53 C-134.72 44.58 -136.84 44.63 -138.97 44.69 C-141.06 44.74 -143.15 44.8 -145.25 44.85 C-146.47 44.88 -147.7 44.91 -148.97 44.94 C-152.53 45.14 -155.98 45.62 -159.51 46.13 C-161.63 46.26 -163.76 46.35 -165.89 46.42 C-167.06 46.45 -168.22 46.49 -169.43 46.53 C-171.86 46.6 -174.29 46.67 -176.73 46.74 C-177.89 46.78 -179.06 46.81 -180.26 46.85 C-181.32 46.88 -182.37 46.91 -183.46 46.94 C-186.54 47.14 -189.47 47.62 -192.51 48.13 C-194.39 48.26 -196.28 48.35 -198.17 48.42 C-199.21 48.45 -200.25 48.49 -201.32 48.53 C-203.49 48.6 -205.66 48.67 -207.83 48.74 C-209.39 48.8 -209.39 48.8 -210.98 48.85 C-211.92 48.88 -212.86 48.91 -213.83 48.94 C-216.47 49.13 -218.92 49.61 -221.51 50.13 C-223.06 50.26 -224.61 50.35 -226.16 50.42 C-227.02 50.45 -227.88 50.49 -228.76 50.53 C-229.65 50.56 -230.53 50.6 -231.45 50.63 C-233.21 50.7 -234.96 50.78 -236.72 50.85 C-237.5 50.88 -238.27 50.91 -239.07 50.94 C-241.58 51.1 -241.58 51.1 -244.29 51.62 C-248.12 52.23 -251.92 52.41 -255.79 52.58 C-264.15 53 -272.43 53.79 -280.74 54.75 C-295.79 56.48 -310.85 57.94 -325.95 59.18 C-326.63 59.24 -327.31 59.3 -328.02 59.36 C-329.85 59.51 -331.69 59.66 -333.52 59.81 C-335.97 60.08 -338.14 60.51 -340.51 61.13 C-343.71 61.39 -346.9 61.57 -350.11 61.74 C-353.12 61.91 -355.63 62.17 -358.51 63.13 C-361.69 63.39 -364.87 63.58 -368.06 63.74 C-371.09 63.91 -373.61 64.17 -376.51 65.13 C-378.51 65.29 -380.51 65.41 -382.51 65.51 C-387.92 65.87 -393.22 66.49 -398.57 67.38 C-407.59 68.87 -416.63 70.21 -425.69 71.48 C-427.29 71.7 -428.89 71.93 -430.5 72.17 C-438.95 73.41 -447.3 74.35 -455.86 74.42 C-456.56 74.43 -457.26 74.44 -457.98 74.45 C-463.68 74.41 -467.4 73.02 -471.51 69.13 C-472.29 68.45 -473.08 67.77 -473.88 67.07 C-477.87 62.32 -477.94 58.1 -477.82 52.04 C-477.24 46.57 -474.16 43.61 -470.38 39.95 C-462.58 33.73 -452.15 33.42 -442.57 32.51 C-440.17 32.27 -437.76 32.03 -435.36 31.78 C-434.3 31.68 -433.25 31.58 -432.17 31.48 C-429.41 31.21 -429.41 31.21 -426.51 30.13 C-423.19 29.83 -419.87 29.63 -416.54 29.42 C-413.47 29.25 -413.47 29.25 -410.51 28.13 C-408.57 27.88 -406.63 27.67 -404.68 27.49 C-402.91 27.31 -402.91 27.31 -401.1 27.13 C-399.83 27.01 -398.57 26.89 -397.26 26.76 C-388.07 25.84 -378.91 24.86 -369.76 23.63 C-368.83 23.51 -367.9 23.39 -366.95 23.26 C-365.07 23.01 -363.2 22.76 -361.32 22.51 C-344.07 20.21 -326.83 18.49 -309.48 17.14 C-308.72 17.08 -307.97 17.02 -307.19 16.96 C-305.77 16.84 -304.35 16.73 -302.93 16.63 C-299.38 16.35 -295.99 15.86 -292.51 15.13 C-291.16 15.01 -289.8 14.92 -288.44 14.85 C-287.34 14.8 -287.34 14.8 -286.22 14.74 C-284.7 14.67 -283.18 14.6 -281.66 14.53 C-277.57 14.35 -277.57 14.35 -273.55 13.63 C-271.3 13.08 -269.23 12.94 -266.92 12.85 C-266.05 12.82 -265.19 12.78 -264.29 12.74 C-263.39 12.7 -262.5 12.67 -261.57 12.63 C-259.79 12.57 -258.01 12.49 -256.23 12.42 C-255.05 12.37 -255.05 12.37 -253.85 12.32 C-251.47 12.18 -251.47 12.18 -249.02 11.63 C-246.51 11.13 -244.16 10.95 -241.6 10.85 C-240.24 10.8 -240.24 10.8 -238.85 10.74 C-236.96 10.67 -235.06 10.6 -233.17 10.53 C-231.81 10.47 -231.81 10.47 -230.42 10.42 C-229.18 10.37 -229.18 10.37 -227.92 10.32 C-225.39 10.12 -223 9.64 -220.51 9.13 C-219.15 9.02 -217.78 8.94 -216.41 8.89 C-215.23 8.84 -215.23 8.84 -214.03 8.79 C-213.18 8.76 -212.32 8.73 -211.45 8.7 C-202.98 8.34 -194.53 7.82 -186.07 7.2 C-184.31 7.07 -184.31 7.07 -182.51 6.94 C-180.08 6.76 -177.64 6.58 -175.21 6.4 C-157.68 5.12 -140.18 3.96 -122.61 3.48 C-116.9 3.31 -111.22 3.06 -105.52 2.64 C-95.63 1.95 -85.73 1.82 -75.82 1.63 C-72.99 1.58 -70.16 1.53 -67.33 1.47 C-65.58 1.44 -63.84 1.4 -62.1 1.37 C-57.2 1.28 -52.33 1.06 -47.44 0.76 C-31.64 -0.16 -15.82 -0.01 0 0 Z " fill="red" transform="translate(596.5089046955109,585.865674495697)"/>
</svg>
